<svg xmlns="http://www.w3.org/2000/svg" width="800" height="600"><g transform="translate(0 0)"><svg xmlns="http://www.w3.org/2000/svg" width="200" height="200"><path stroke="hsl(120, 90%, 2%)" stroke-width="2" d="M 156.38673113463295 99.99999999999999 C 156.4183898139563 112.089411303758 161.88388994564198 127.47557383361247 156.52944957809044 136.3292713046435 C 151.1750092105389 145.1829687756745 135.11468441787792 149.21018646490933 124.26008892932364 153.12218482618613 C 113.40549344076936 157.03418318746293 102.77390287740468 160.19721357973526 91.40187664676478 159.80126147230425 C 80.02985041612487 159.40530936487323 63.79241932347535 158.01271697692607 56.02793154548423 150.74647218160004 C 48.26344376749311 143.480227386274 46.48286392323606 127.30317582722799 44.81494997881805 116.20379270034799 C 43.14703603440004 105.10440957346799 43.42117990846917 94.46558084708454 46.020447878976164 84.15017342032002 C 48.61971584948316 73.8347659935555 52.980091833579046 62.56235632722805 60.41055780186 54.31134813976088 C 67.84102377014096 46.06033995229371 80.26892724303782 35.21021446316482 90.6032436886619 34.644124295517 C 100.93756013428599 34.07803412786919 111.46041417335641 46.056693936110946 122.41645647560446 50.914807133874014 C 133.3724987778525 55.77292033163708 150.6777850589788 55.61193800440774 156.3394975021502 63.7928034820954 C 162.00120994532162 71.97366895978307 156.3550724553096 87.91058869624197 156.38673113463295 99.99999999999999 C 156.4183898139563 112.089411303758 161.88388994564198 127.47557383361247 156.52944957809044 136.3292713046435" fill="hsl(120, 90%, 98%)"/><g transform="translate(83 100)"><circle stroke="hsl(120, 90%, 2%)" stroke-width="2" cx="0" cy="0" r="17" fill="white"/><circle stroke-width="2" cx="0" cy="0" r="8" fill="hsl(120, 90%, 2%)"/></g><g transform="translate(117 100)"><circle stroke="hsl(120, 90%, 2%)" stroke-width="2" cx="0" cy="0" r="17" fill="white"/><circle stroke-width="2" cx="0" cy="0" r="8" fill="hsl(120, 90%, 2%)"/></g></svg></g><g transform="translate(0 200)"><svg xmlns="http://www.w3.org/2000/svg" width="200" height="200"><path stroke="hsl(240, 90%, 2%)" stroke-width="2" d="M 158.28594488613976 99.99999999999999 C 157.60384265156694 115.99828745648749 139.9630687952201 136.50874778680736 125.66354000500976 144.45055519075333 C 111.36401121479943 152.3923625946993 87.34758586018 155.05927028880143 72.48877214487779 147.65084442367586 C 57.62995842957556 140.2424185585503 36.677906420373326 116.17329806622256 36.51065771319642 100.00000000000001 C 36.34340900601952 83.82670193377747 55.944363951941334 59.200917617702544 71.48527990181637 50.61105602634059 C 87.02619585169141 42.02119443497864 115.28937591505942 40.22933978955173 129.75615341244665 48.46083045182829 C 144.22293090983388 56.69232111410486 158.96804712071258 84.00171254351248 158.28594488613976 99.99999999999999 C 157.60384265156694 115.99828745648749 139.9630687952201 136.50874778680736 125.66354000500976 144.45055519075333" fill="hsl(240, 90%, 98%)"/><g transform="translate(84 84)"><circle stroke="hsl(240, 90%, 2%)" stroke-width="2" cx="0" cy="0" r="14" fill="white"/><circle stroke-width="2" cx="0" cy="0" r="7" fill="hsl(240, 90%, 2%)"/></g><g transform="translate(116 84)"><circle stroke="hsl(240, 90%, 2%)" stroke-width="2" cx="0" cy="0" r="14" fill="white"/><circle stroke-width="2" cx="0" cy="0" r="7" fill="hsl(240, 90%, 2%)"/></g><g transform="translate(84 116)"><circle stroke="hsl(240, 90%, 2%)" stroke-width="2" cx="0" cy="0" r="14" fill="white"/><circle stroke-width="2" cx="0" cy="0" r="7" fill="hsl(240, 90%, 2%)"/></g><g transform="translate(116 116)"><circle stroke="hsl(240, 90%, 2%)" stroke-width="2" cx="0" cy="0" r="14" fill="white"/><circle stroke-width="2" cx="0" cy="0" r="7" fill="hsl(240, 90%, 2%)"/></g></svg></g><g transform="translate(0 400)"><svg xmlns="http://www.w3.org/2000/svg" width="200" height="200"><path stroke="hsl(280, 100%, 2%)" stroke-width="2" d="M 175.72062352864845 99.99999999999999 C 175.09717620895162 121.17660187623491 140.35277340139695 151.262990930551 118.7717431875239 157.773484972324 C 97.19071297365085 164.283979014097 58.85764227470141 155.59009178173537 46.234442245410186 139.06296425063795 C 33.61124221611896 122.53583671954053 30.31954553506076 76.6689015416934 43.032543011776525 58.61071978573948 C 55.74554048849229 40.55253802978555 100.39774701955945 23.815660345870995 122.51242710570477 30.713873714914413 C 144.6271071918501 37.61208708395783 176.34407084834527 78.82339812376506 175.72062352864845 99.99999999999999 C 175.09717620895162 121.17660187623491 140.35277340139695 151.262990930551 118.7717431875239 157.773484972324" fill="hsl(280, 100%, 98%)"/><g transform="translate(100 100)"><circle stroke="hsl(280, 100%, 2%)" stroke-width="2" cx="0" cy="0" r="10" fill="white"/><circle stroke-width="2" cx="0" cy="0" r="5" fill="hsl(280, 100%, 2%)"/></g></svg></g><g transform="translate(200 0)"><svg xmlns="http://www.w3.org/2000/svg" width="200" height="200"><path stroke="hsl(46, 98%, 2%)" stroke-width="2" d="M 142.53547288746205 99.99999999999999 C 142.57308868970875 110.37103423136512 133.6275026773893 124.18523547195599 124.92471885084657 131.25460886635554 C 116.22193502430386 138.3239822607551 100.73303573602989 144.6106144208069 90.31876992820577 142.4162403663973 C 79.90450412038165 140.22186631198767 67.26247521144046 128.25758056701136 62.43912400390181 118.08836453989784 C 57.61577279636316 107.91914851278432 56.58914304495588 90.85890670860987 61.37866268297385 81.40094420371615 C 66.16818232099182 71.94298169882244 80.62284827294418 63.40267963146074 91.17624183200961 61.340589510535516 C 101.72963539107504 59.27849938961029 116.13915219479098 62.58516839658738 124.69902403736639 69.02840347816479 C 133.2588958799418 75.4716385597422 142.49785708521534 89.62896576863486 142.53547288746205 99.99999999999999 C 142.57308868970875 110.37103423136512 133.6275026773893 124.18523547195599 124.92471885084657 131.25460886635554" fill="hsl(46, 98%, 98%)"/><g transform="translate(88 100)"><circle stroke="hsl(46, 98%, 2%)" stroke-width="2" cx="0" cy="0" r="7" fill="white"/><circle stroke-width="2" cx="0" cy="0" r="3" fill="hsl(46, 98%, 2%)"/></g><g transform="translate(112 100)"><circle stroke="hsl(46, 98%, 2%)" stroke-width="2" cx="0" cy="0" r="7" fill="white"/><circle stroke-width="2" cx="0" cy="0" r="3" fill="hsl(46, 98%, 2%)"/></g></svg></g><g transform="translate(200 200)"><svg xmlns="http://www.w3.org/2000/svg" width="200" height="200"><path stroke="hsl(243, 99%, 2%)" stroke-width="2" d="M 165.0823151147943 99.99999999999999 C 166.85181202693406 116.82835109256851 158.92422304914584 146.15257739123933 145.5689772616998 157.14169011402515 C 132.2137314742538 168.13080283681097 103.56202311650974 170.15309527107516 84.9508403901182 165.9346763367149 C 66.33965766372667 161.71625740235461 41.35656578632961 147.618158478584 33.90188090335059 131.83117650786357 C 26.447196020371564 116.04419453714314 31.730227879966556 87.57568981409462 40.22273109224407 71.21278451239232 C 48.71523430452158 54.84987921069002 69.06868939424612 36.160611523279485 84.85690017701566 33.65374469764977 C 100.6451109597852 31.146877872020056 121.58109329923155 45.11387434155567 134.95199578886132 56.17158355861404 C 148.3228982784911 67.2292927756724 163.31281820265457 83.17164890743146 165.0823151147943 99.99999999999999 C 166.85181202693406 116.82835109256851 158.92422304914584 146.15257739123933 145.5689772616998 157.14169011402515" fill="hsl(243, 99%, 98%)"/><g transform="translate(100 100)"><circle stroke="hsl(243, 99%, 2%)" stroke-width="2" cx="0" cy="0" r="17" fill="white"/><circle stroke-width="2" cx="0" cy="0" r="8" fill="hsl(243, 99%, 2%)"/></g></svg></g><g transform="translate(200 400)"><svg xmlns="http://www.w3.org/2000/svg" width="200" height="200"><path stroke="hsl(320, 77%, 2%)" stroke-width="2" d="M 169.56178090532933 99.99999999999999 C 169.26777252845616 119.6271437985959 149.49555637593912 149.05937618548882 133.113185136009 157.3537190560021 C 116.7308138960789 165.64806192651537 88.5134513753579 159.32501039907993 71.2675534657487 149.76605722307957 C 54.02165555613951 140.2071040470792 29.94983907046047 117.12915728621971 29.63779767835385 100.00000000000001 C 29.325756286247227 82.87084271378032 51.85539882662661 57.05930412835693 69.39530511310898 46.99111350576136 C 86.93521139959134 36.922922883165796 118.18282276521127 30.756041848720187 134.877235397248 39.59085626442663 C 151.57164802928472 48.42567068013307 169.8557892822025 80.37285620140408 169.56178090532933 99.99999999999999 C 169.26777252845616 119.6271437985959 149.49555637593912 149.05937618548882 133.113185136009 157.3537190560021" fill="hsl(320, 77%, 98%)"/><g transform="translate(82 100)"><circle stroke="hsl(320, 77%, 2%)" stroke-width="2" cx="0" cy="0" r="13" fill="white"/><circle stroke-width="2" cx="0" cy="0" r="6" fill="hsl(320, 77%, 2%)"/></g><g transform="translate(118 100)"><circle stroke="hsl(320, 77%, 2%)" stroke-width="2" cx="0" cy="0" r="13" fill="white"/><circle stroke-width="2" cx="0" cy="0" r="6" fill="hsl(320, 77%, 2%)"/></g></svg></g><g transform="translate(400 0)"><svg xmlns="http://www.w3.org/2000/svg" width="200" height="200"><path stroke="hsl(345, 95%, 2%)" stroke-width="2" d="M 158.64004936809135 99.99999999999999 C 158.64004936809135 123.48901452617389 119.79517223176342 172.35583773417164 100.0 172.35583773417164 C 80.20482776823658 172.35583773417164 39.869015977510834 123.48901452617392 39.869015977510834 100.00000000000001 C 39.869015977510834 76.51098547382611 80.20482776823657 31.421750577128183 99.99999999999999 31.42175057712818 C 119.7951722317634 31.421750577128176 158.64004936809135 76.51098547382608 158.64004936809135 99.99999999999999 C 158.64004936809135 123.48901452617389 119.79517223176342 172.35583773417164 100.0 172.35583773417164" fill="hsl(345, 95%, 98%)"/><g transform="translate(81 100)"><circle stroke="hsl(345, 95%, 2%)" stroke-width="2" cx="0" cy="0" r="12" fill="white"/><circle stroke-width="2" cx="0" cy="0" r="6" fill="hsl(345, 95%, 2%)"/></g><g transform="translate(119 100)"><circle stroke="hsl(345, 95%, 2%)" stroke-width="2" cx="0" cy="0" r="12" fill="white"/><circle stroke-width="2" cx="0" cy="0" r="6" fill="hsl(345, 95%, 2%)"/></g></svg></g><g transform="translate(400 200)"><svg xmlns="http://www.w3.org/2000/svg" width="200" height="200"><path stroke="hsl(85, 75%, 2%)" stroke-width="2" d="M 159.47827292885069 99.99999999999999 C 159.68098260643467 118.14294030981942 147.12354226626758 146.51379162889287 132.03262344804864 155.48213131174236 C 116.9417046298297 164.45047099459185 84.29642845061022 163.0570599823874 68.93276001953706 153.810038097097 C 53.56909158846389 144.5630162118066 39.7023704525968 117.67991598145235 39.85061286160964 100.00000000000001 C 39.99885527062248 82.32008401854767 54.6612557201249 56.626460632912014 69.82221447361408 47.730542208382964 C 84.98317322710326 38.834623783853914 115.87368897333864 37.91291315422287 130.81636538254475 46.624489452825706 C 145.75904179175086 55.33606575142854 159.2755632512667 81.85705969018055 159.47827292885069 99.99999999999999 C 159.68098260643467 118.14294030981942 147.12354226626758 146.51379162889287 132.03262344804864 155.48213131174236" fill="hsl(85, 75%, 98%)"/><g transform="translate(83 83)"><circle stroke="hsl(85, 75%, 2%)" stroke-width="2" cx="0" cy="0" r="15" fill="white"/><circle stroke-width="2" cx="0" cy="0" r="7" fill="hsl(85, 75%, 2%)"/></g><g transform="translate(117 83)"><circle stroke="hsl(85, 75%, 2%)" stroke-width="2" cx="0" cy="0" r="15" fill="white"/><circle stroke-width="2" cx="0" cy="0" r="7" fill="hsl(85, 75%, 2%)"/></g><g transform="translate(100 117)"><circle stroke="hsl(85, 75%, 2%)" stroke-width="2" cx="0" cy="0" r="15" fill="white"/><circle stroke-width="2" cx="0" cy="0" r="7" fill="hsl(85, 75%, 2%)"/></g></svg></g><g transform="translate(400 400)"><svg xmlns="http://www.w3.org/2000/svg" width="200" height="200"><path stroke="hsl(285, 87%, 2%)" stroke-width="2" d="M 177.2341158852778 99.99999999999999 C 178.76237073999792 113.19577760033872 168.4860657505325 132.27468128206638 159.07205371115452 142.91835923777066 C 149.65804167177654 153.56203719347494 134.6978036253724 158.38918421645667 120.75004364900988 163.8620677342256 C 106.80228367264736 169.33495125199454 88.33091459011293 179.5065711198008 75.38549385297941 175.75566034438435 C 62.44007311584589 172.0047495689679 50.75744190117384 153.98254647245756 43.077519226208786 141.35660308172683 C 35.39759655124373 128.7306596909961 28.17820660434883 112.96617515360916 29.305957803189074 100.00000000000001 C 30.433709002029318 87.03382484639087 41.53073227327754 74.23617860156598 49.844026419250255 63.559552160072 C 58.15732056522297 52.88292571857802 66.8926378821223 41.97368904816432 79.18572267902536 35.940241351036136 C 91.47880747592842 29.90679365390795 111.81640155003385 22.72495726318587 123.60253520066857 27.358865977302898 C 135.3886688513033 31.992774691419925 140.96392780206554 51.636837965288784 149.90252458283373 63.743693635738296 C 158.84112136360193 75.85054930618782 175.70586103055766 86.80422239966126 177.2341158852778 99.99999999999999 C 178.76237073999792 113.19577760033872 168.4860657505325 132.27468128206638 159.07205371115452 142.91835923777066" fill="hsl(285, 87%, 98%)"/><g transform="translate(100 100)"><circle stroke="hsl(285, 87%, 2%)" stroke-width="2" cx="0" cy="0" r="14" fill="white"/><circle stroke-width="2" cx="0" cy="0" r="7" fill="hsl(285, 87%, 2%)"/></g></svg></g><g transform="translate(600 0)"><svg xmlns="http://www.w3.org/2000/svg" width="200" height="200"><path stroke="hsl(256, 76%, 2%)" stroke-width="2" d="M 151.7920600385857 99.99999999999999 C 151.60855492484882 115.67193458581615 139.70875284107996 138.2980689088869 126.59407161431884 146.0622832161255 C 113.47939038755773 153.8264975233641 86.11346788691995 154.26233304611927 73.10397267801906 146.58528584343168 C 60.09447746911817 138.9082386407441 48.576857680793985 115.59729031248304 48.53710036091347 100.0 C 48.497343041032956 84.40270968751696 59.6724284360982 60.99643135166204 72.86542875873597 53.00154396853347 C 86.05842908137375 45.0066565854049 114.54066375009847 44.19759969598413 127.6951022967401 52.03067570122855 C 140.84954084338173 59.863751706472975 151.9755651523226 84.32806541418383 151.7920600385857 99.99999999999999 C 151.60855492484882 115.67193458581615 139.70875284107996 138.2980689088869 126.59407161431884 146.0622832161255" fill="hsl(256, 76%, 98%)"/><g transform="translate(83 100)"><circle stroke="hsl(256, 76%, 2%)" stroke-width="2" cx="0" cy="0" r="11" fill="white"/><circle stroke-width="2" cx="0" cy="0" r="5" fill="hsl(256, 76%, 2%)"/></g><g transform="translate(117 100)"><circle stroke="hsl(256, 76%, 2%)" stroke-width="2" cx="0" cy="0" r="11" fill="white"/><circle stroke-width="2" cx="0" cy="0" r="5" fill="hsl(256, 76%, 2%)"/></g></svg></g><g transform="translate(600 200)"><svg xmlns="http://www.w3.org/2000/svg" width="200" height="200"><path stroke="hsl(208, 76%, 2%)" stroke-width="2" d="M 155.72635715944887 99.99999999999999 C 155.20917829586307 108.42028984042983 147.8363100390738 118.03792687489401 142.20157286348422 124.36508945295822 C 136.56683568789464 130.6922520310224 128.95152958315873 133.2621605375884 121.91793410591136 137.9629754683852 C 114.88433862866398 142.663790399182 107.67284484738948 151.9345470795958 100.0 152.56997903773907 C 92.32715515261052 153.20541099588235 82.35532010374992 146.79920200565113 75.88086502157446 141.77556721724474 C 69.40640993939901 136.75193242883836 65.45168588248251 129.39076484350832 61.15326950694727 122.42817030730086 C 56.854853131412035 115.4655757710934 50.059145731879255 107.45803129528198 50.090366768363054 100.0 C 50.121587804846854 92.54196870471802 57.338927001259414 85.15655908027918 61.34059572585006 77.67998253560899 C 65.3422644504407 70.20340599093879 67.65714507021526 59.045302602931756 74.10037911590692 55.14054073197887 C 80.54361316159857 51.23577886102598 92.00338308016951 53.14880501436261 99.99999999999999 54.25141130989167 C 107.99661691983046 55.35401760542074 114.52930629405657 58.49085532173869 122.08008063488973 61.756178505153265 C 129.63085497572288 65.02150168856784 139.69693329090575 67.46938016123799 145.30464604499895 73.84335041037912 C 150.91235879909215 80.21732065952024 156.24353602303466 91.57971015957014 155.72635715944887 99.99999999999999 C 155.20917829586307 108.42028984042983 147.8363100390738 118.03792687489401 142.20157286348422 124.36508945295822" fill="hsl(208, 76%, 98%)"/><g transform="translate(100 100)"><circle stroke="hsl(208, 76%, 2%)" stroke-width="2" cx="0" cy="0" r="7" fill="white"/><circle stroke-width="2" cx="0" cy="0" r="3" fill="hsl(208, 76%, 2%)"/></g></svg></g><g transform="translate(600 400)"><svg xmlns="http://www.w3.org/2000/svg" width="200" height="200"><path stroke="hsl(258, 75%, 2%)" stroke-width="2" d="M 154.8719613055115 99.99999999999999 C 155.28635165237355 110.17672048171987 153.72782913499358 122.20567680664783 148.74902954109842 131.32909896089015 C 143.77022994720326 140.45252111513247 134.66800431633828 149.2232774218077 124.99916374214052 154.74053292545386 C 115.33032316794275 160.25778842910003 102.44899617170977 164.84694873896694 90.7359860959118 164.4326319827671 C 79.02297602011383 164.01831522656727 62.77629162327754 160.17482769881542 54.72110328735269 152.25463238825483 C 46.665914951427844 144.33443707769425 43.63083423413905 128.1963924574673 42.40485608036271 116.91146011940359 C 41.178877926586374 105.62652778133986 43.892207428170266 94.43358486042462 47.36523436469467 84.54503835987245 C 50.83826130121908 74.65649185932028 56.02644581256278 65.8258002305454 63.24301769950913 57.580181116090614 C 70.45958958645548 49.33456200163584 80.5672997327252 36.69707380582936 90.6646656863728 35.07132367314378 C 100.7620316400204 33.4455735404582 114.56087645913588 41.95943825373925 123.82721342139475 47.8256803199771 C 133.09355038365362 53.691922386214955 141.0885628125732 61.5730561239004 146.26268745992598 70.26877607057088 C 151.43681210727877 78.96449601724136 154.45757095864943 89.8232795182801 154.8719613055115 99.99999999999999 C 155.28635165237355 110.17672048171987 153.72782913499358 122.20567680664783 148.74902954109842 131.32909896089015" fill="hsl(258, 75%, 98%)"/><g transform="translate(83 100)"><circle stroke="hsl(258, 75%, 2%)" stroke-width="2" cx="0" cy="0" r="10" fill="white"/><circle stroke-width="2" cx="0" cy="0" r="5" fill="hsl(258, 75%, 2%)"/></g><g transform="translate(117 100)"><circle stroke="hsl(258, 75%, 2%)" stroke-width="2" cx="0" cy="0" r="10" fill="white"/><circle stroke-width="2" cx="0" cy="0" r="5" fill="hsl(258, 75%, 2%)"/></g></svg></g></svg>
