<svg xmlns="http://www.w3.org/2000/svg" width="800" height="800"><circle stroke="hsl(225, 94%, 20%)" stroke-width="1" cx="119.19952154210102" cy="656.0294734943909" r="20.0" fill="none"/><circle stroke="hsl(225, 94%, 20%)" stroke-width="1" cx="467.5929716519474" cy="94.38555305211923" r="42.479882273303645" fill="none"/><circle stroke="hsl(225, 94%, 20%)" stroke-width="1" cx="118.72043329212977" cy="550.4752649196298" r="29.858807948118795" fill="none"/><circle stroke="hsl(225, 94%, 20%)" stroke-width="1" cx="54.55387784029216" cy="419.56979010669824" r="54.0" fill="none"/><circle stroke="hsl(225, 94%, 20%)" stroke-width="1" cx="478.089567384896" cy="785.1636268725797" r="6.999999999999943" fill="none"/><circle stroke="hsl(225, 94%, 20%)" stroke-width="1" cx="359.47956096193377" cy="95.68586293081557" r="50.96220883320609" fill="none"/><circle stroke="hsl(225, 94%, 20%)" stroke-width="1" cx="40.568000134271756" cy="316.515645342836" r="31.0" fill="none"/><circle stroke="hsl(225, 94%, 20%)" stroke-width="1" cx="754.3194922533914" cy="531.6878787485732" r="6.423596518711065" fill="none"/><circle stroke="hsl(225, 94%, 20%)" stroke-width="1" cx="449.4384751395315" cy="24.238323966003804" r="21.000000000000057" fill="none"/><circle stroke="hsl(225, 94%, 20%)" stroke-width="1" cx="636.0884440068999" cy="128.22390354116698" r="40.0" fill="none"/><circle stroke="hsl(225, 94%, 20%)" stroke-width="1" cx="734.0286754023084" cy="236.2659350990781" r="27.999999999999943" fill="none"/><circle stroke="hsl(225, 94%, 20%)" stroke-width="1" cx="156.8962091109615" cy="630.4897977251459" r="25.533672068727803" fill="none"/><circle stroke="hsl(225, 94%, 20%)" stroke-width="1" cx="548.4503222816043" cy="122.17361209833246" r="29.71637682803822" fill="none"/><circle stroke="hsl(225, 94%, 20%)" stroke-width="1" cx="184.18468109764183" cy="216.93512590594162" r="37.06769773850061" fill="none"/><circle stroke="hsl(225, 94%, 20%)" stroke-width="1" cx="763.3341829539804" cy="552.395116382263" r="6.0" fill="none"/><circle stroke="hsl(225, 94%, 20%)" stroke-width="1" cx="263.24129158362007" cy="59.43274427466815" r="33.0" fill="none"/><circle stroke="hsl(225, 94%, 20%)" stroke-width="1" cx="400.4319246882727" cy="31.000252789973217" r="25.597077044258896" fill="none"/><circle stroke="hsl(225, 94%, 20%)" stroke-width="1" cx="116.67212387503577" cy="333.6199230904563" r="36.16337265086281" fill="none"/><circle stroke="hsl(225, 94%, 20%)" stroke-width="1" cx="555.0919349767782" cy="85.12305307444501" r="7.9247568315005665" fill="none"/><circle stroke="hsl(225, 94%, 20%)" stroke-width="1" cx="167.3387169568315" cy="290.831655812197" r="7.629191177884252" fill="none"/><circle stroke="hsl(225, 94%, 20%)" stroke-width="1" cx="270.15764054231056" cy="749.6712194197003" r="27.0" fill="none"/><circle stroke="hsl(225, 94%, 20%)" stroke-width="1" cx="149.8575286691372" cy="255.25973595267803" r="14.38256104689522" fill="none"/><circle stroke="hsl(225, 94%, 20%)" stroke-width="1" cx="596.255430390998" cy="154.88817645400266" r="7.933833809688217" fill="none"/><circle stroke="hsl(225, 94%, 20%)" stroke-width="1" cx="155.33786760695946" cy="706.2751066817059" r="7.999999999999943" fill="none"/><circle stroke="hsl(225, 94%, 20%)" stroke-width="1" cx="85.65425538100442" cy="273.0836778033289" r="31.602765246643294" fill="none"/><circle stroke="hsl(225, 94%, 20%)" stroke-width="1" cx="612.2718705619834" cy="727.1706786497173" r="10.0" fill="none"/><circle stroke="hsl(225, 94%, 20%)" stroke-width="1" cx="279.79356304571184" cy="94.8206879312512" r="6.06768801447398" fill="none"/><circle stroke="hsl(225, 94%, 20%)" stroke-width="1" cx="402.64445981565103" cy="133.0130961408717" r="6.103812862454099" fill="none"/><circle stroke="hsl(225, 94%, 20%)" stroke-width="1" cx="175.66769247666247" cy="159.34253429146494" r="21.15124852508081" fill="none"/><circle stroke="hsl(225, 94%, 20%)" stroke-width="1" cx="217.82913294212233" cy="692.9825510083853" r="21.258671216179494" fill="none"/><circle stroke="hsl(225, 94%, 20%)" stroke-width="1" cx="352.4294721463878" cy="771.9704892592001" r="23.46059041497284" fill="none"/><circle stroke="hsl(225, 94%, 20%)" stroke-width="1" cx="220.03687556552003" cy="180.2973057885273" r="14.193493343238465" fill="none"/><circle stroke="hsl(225, 94%, 20%)" stroke-width="1" cx="85.21104663754801" cy="198.04972185963194" r="26.0" fill="none"/><circle stroke="hsl(225, 94%, 20%)" stroke-width="1" cx="152.5116595902405" cy="292.06705154947815" r="7.2492439810924" fill="none"/><circle stroke="hsl(225, 94%, 20%)" stroke-width="1" cx="426.6274266718315" cy="64.05360524506852" r="8.492688127722317" fill="none"/><circle stroke="hsl(225, 94%, 20%)" stroke-width="1" cx="110.5049152039274" cy="221.69521633193702" r="8.624979363070892" fill="none"/><circle stroke="hsl(225, 94%, 20%)" stroke-width="1" cx="563.1884765272443" cy="744.2826181042502" r="4.895525918409021" fill="none"/><circle stroke="hsl(225, 94%, 20%)" stroke-width="1" cx="771.9791370517815" cy="396.0602540422113" r="17.458557718540646" fill="none"/><circle stroke="hsl(225, 94%, 20%)" stroke-width="1" cx="105.60275158168929" cy="462.69976175176" r="12.829499207826899" fill="none"/><circle stroke="hsl(225, 94%, 20%)" stroke-width="1" cx="84.7187596012659" cy="513.2375355287973" r="20.567001950829372" fill="none"/><circle stroke="hsl(225, 94%, 20%)" stroke-width="1" cx="93.04824266543704" cy="374.610658353877" r="5.187326779124689" fill="none"/><circle stroke="hsl(225, 94%, 20%)" stroke-width="1" cx="194.25631658493992" cy="721.8594984380661" r="16.01807440177914" fill="none"/><circle stroke="hsl(225, 94%, 20%)" stroke-width="1" cx="273.7731280251435" cy="116.86261851983733" r="16.78165206153116" fill="none"/><circle stroke="hsl(225, 94%, 20%)" stroke-width="1" cx="753.5213913871828" cy="269.0357841558605" r="10.12910940044737" fill="none"/><circle stroke="hsl(225, 94%, 20%)" stroke-width="1" cx="146.27946913046227" cy="195.30048310931468" r="6.577036917749204" fill="none"/><circle stroke="hsl(225, 94%, 20%)" stroke-width="1" cx="121.24944846151595" cy="240.81730616366949" r="13.308996894239883" fill="none"/><circle stroke="hsl(225, 94%, 20%)" stroke-width="1" cx="20.16251541487935" cy="370.25970235441065" r="6.1186374065014775" fill="none"/><circle stroke="hsl(225, 94%, 20%)" stroke-width="1" cx="665.1395515157743" cy="694.1377538195566" r="4.0" fill="none"/><circle stroke="hsl(225, 94%, 20%)" stroke-width="1" cx="154.17994059425905" cy="681.8661001145011" r="16.436456301284544" fill="none"/><circle stroke="hsl(225, 94%, 20%)" stroke-width="1" cx="296.09434623787985" cy="95.22530433734102" r="10.238116078368058" fill="none"/><circle stroke="hsl(225, 94%, 20%)" stroke-width="1" cx="139.29481005562968" cy="111.2894114583433" r="11.0" fill="none"/><circle stroke="hsl(225, 94%, 20%)" stroke-width="1" cx="767.8089116799935" cy="282.8991695640941" r="9.778846072044054" fill="none"/><circle stroke="hsl(225, 94%, 20%)" stroke-width="1" cx="788.4788327252562" cy="334.27179810444835" r="6.0" fill="none"/><circle stroke="hsl(225, 94%, 20%)" stroke-width="1" cx="507.0846752640806" cy="59.438886066558666" r="10.25401752168824" fill="none"/><circle stroke="hsl(225, 94%, 20%)" stroke-width="1" cx="250.88686057767615" cy="195.61244741516518" r="7.012302953971016" fill="none"/><circle stroke="hsl(225, 94%, 20%)" stroke-width="1" cx="227.35470551209073" cy="142.52455982913034" r="24.281576149097297" fill="none"/><circle stroke="hsl(225, 94%, 20%)" stroke-width="1" cx="500.6755680585999" cy="133.37398852310338" r="7.535333723626536" fill="none"/><circle stroke="hsl(225, 94%, 20%)" stroke-width="1" cx="202.12242701976768" cy="82.63512149033755" r="26.000000000000057" fill="none"/><circle stroke="hsl(225, 94%, 20%)" stroke-width="1" cx="255.58531191317857" cy="174.23818333299565" r="14.872271750747537" fill="none"/><circle stroke="hsl(225, 94%, 20%)" stroke-width="1" cx="62.78250903774057" cy="497.392832329276" r="6.493184823594117" fill="none"/><circle stroke="hsl(225, 94%, 20%)" stroke-width="1" cx="581.816042732304" cy="153.87213362732572" r="6.541257173918217" fill="none"/><circle stroke="hsl(225, 94%, 20%)" stroke-width="1" cx="265.0364131250765" cy="146.71393599754649" r="13.632299428467192" fill="none"/><circle stroke="hsl(225, 94%, 20%)" stroke-width="1" cx="414.079642533085" cy="788.7451140093474" r="11.000000000000057" fill="none"/><circle stroke="hsl(225, 94%, 20%)" stroke-width="1" cx="769.3270160833754" cy="422.3059451929338" r="8.920791204626003" fill="none"/><circle stroke="hsl(225, 94%, 20%)" stroke-width="1" cx="20.70253673052332" cy="471.62006951504577" r="8.089813024496806" fill="none"/><circle stroke="hsl(225, 94%, 20%)" stroke-width="1" cx="692.7383957634504" cy="165.63013921188275" r="25.000000000000057" fill="none"/><circle stroke="hsl(225, 94%, 20%)" stroke-width="1" cx="61.38475928225358" cy="578.9656915547297" r="17.0" fill="none"/><circle stroke="hsl(225, 94%, 20%)" stroke-width="1" cx="761.2438665427869" cy="364.33672918509683" r="13.62334332933466" fill="none"/><circle stroke="hsl(225, 94%, 20%)" stroke-width="1" cx="8.14132835173092" cy="350.2829862717599" r="5.0" fill="none"/><circle stroke="hsl(225, 94%, 20%)" stroke-width="1" cx="669.95366949664" cy="685.6116529928336" r="5.791329186639633" fill="none"/><circle stroke="hsl(225, 94%, 20%)" stroke-width="1" cx="227.28540388876792" cy="100.19061340556067" r="4.6817649638234045" fill="none"/><circle stroke="hsl(225, 94%, 20%)" stroke-width="1" cx="285.1478182500522" cy="168.9740786247635" r="10.14506534439721" fill="none"/><circle stroke="hsl(225, 94%, 20%)" stroke-width="1" cx="291.77447863331895" cy="33.65148215816396" r="5.455379851628017" fill="none"/><circle stroke="hsl(225, 94%, 20%)" stroke-width="1" cx="83.95908765902385" cy="574.4681682333011" r="6.017993346272597" fill="none"/><circle stroke="hsl(225, 94%, 20%)" stroke-width="1" cx="96.46614466356743" cy="158.31591143684773" r="12.0" fill="none"/><circle stroke="hsl(225, 94%, 20%)" stroke-width="1" cx="682.6565555436871" cy="209.24814127202174" r="19.767997564500483" fill="none"/><circle stroke="hsl(225, 94%, 20%)" stroke-width="1" cx="230.22361458043832" cy="721.9813332382305" r="10.277855953065696" fill="none"/><circle stroke="hsl(225, 94%, 20%)" stroke-width="1" cx="153.9565887047186" cy="304.29921756756113" r="5.067967782931568" fill="none"/><circle stroke="hsl(225, 94%, 20%)" stroke-width="1" cx="768.3550919954323" cy="525.0420977152758" r="9.10587435641258" fill="none"/><circle stroke="hsl(225, 94%, 20%)" stroke-width="1" cx="173.86120204173426" cy="710.3501958401037" r="7.400395734460435" fill="none"/><circle stroke="hsl(225, 94%, 20%)" stroke-width="1" cx="460.5880061083016" cy="47.16421168506673" r="4.493300463663818" fill="none"/><circle stroke="hsl(225, 94%, 20%)" stroke-width="1" cx="709.7879497094481" cy="259.8878084718661" r="5.846797245183097" fill="none"/><circle stroke="hsl(225, 94%, 20%)" stroke-width="1" cx="585.0825955792468" cy="739.8726714721986" r="9.622773081837522" fill="none"/><circle stroke="hsl(225, 94%, 20%)" stroke-width="1" cx="547.5412799599922" cy="752.3571635539247" r="7.108927702512119" fill="none"/><circle stroke="hsl(225, 94%, 20%)" stroke-width="1" cx="50.38375994777101" cy="553.9236326615967" r="10.351904869029283" fill="none"/><circle stroke="hsl(225, 94%, 20%)" stroke-width="1" cx="714.0467394537723" cy="275.0254208310568" r="6.764898884362708" fill="none"/><circle stroke="hsl(225, 94%, 20%)" stroke-width="1" cx="24.378702216749332" cy="515.5752596866064" r="7.0" fill="none"/><circle stroke="hsl(225, 94%, 20%)" stroke-width="1" cx="640.7671971816194" cy="178.73057879294026" r="10.72292357759001" fill="none"/><circle stroke="hsl(225, 94%, 20%)" stroke-width="1" cx="760.9379616028034" cy="497.9785072044539" r="5.932356886355933" fill="none"/><circle stroke="hsl(225, 94%, 20%)" stroke-width="1" cx="538.7225692579574" cy="50.52603991359928" r="22.615347591044127" fill="none"/><circle stroke="hsl(225, 94%, 20%)" stroke-width="1" cx="115.14471036517955" cy="374.4370587165223" r="4.682331563249541" fill="none"/><circle stroke="hsl(225, 94%, 20%)" stroke-width="1" cx="65.74001643668936" cy="530.9628320870288" r="5.401802992490911" fill="none"/><circle stroke="hsl(225, 94%, 20%)" stroke-width="1" cx="604.2852151268186" cy="97.52264402010275" r="4.2042159005062985" fill="none"/><circle stroke="hsl(225, 94%, 20%)" stroke-width="1" cx="317.30590684026896" cy="43.46432582911183" r="16.162347323527158" fill="none"/><circle stroke="hsl(225, 94%, 20%)" stroke-width="1" cx="765.3308787508829" cy="299.13202177545315" r="6.642059448467915" fill="none"/><circle stroke="hsl(225, 94%, 20%)" stroke-width="1" cx="789.8189759532427" cy="469.6933711823815" r="4.0" fill="none"/><circle stroke="hsl(225, 94%, 20%)" stroke-width="1" cx="187.5052083096614" cy="636.5797191317963" r="5.675268552273586" fill="none"/><circle stroke="hsl(225, 94%, 20%)" stroke-width="1" cx="144.4186982324021" cy="278.4796387975248" r="8.565742861501251" fill="none"/><circle stroke="hsl(225, 94%, 20%)" stroke-width="1" cx="328.6592571654461" cy="145.8219159490456" r="7.889426134350806" fill="none"/><circle stroke="hsl(225, 94%, 20%)" stroke-width="1" cx="719.0021006084639" cy="200.96819398049107" r="10.363113509070082" fill="none"/><circle stroke="hsl(225, 94%, 20%)" stroke-width="1" cx="151.8649305292437" cy="147.52230336375658" r="5.424856071150746" fill="none"/><circle stroke="hsl(225, 94%, 20%)" stroke-width="1" cx="78.83071997376715" cy="475.83069014212657" r="7.275231021760547" fill="none"/><circle stroke="hsl(225, 94%, 20%)" stroke-width="1" cx="300.0721586916897" cy="730.2111847461578" r="4.028240421368082" fill="none"/><circle stroke="hsl(225, 94%, 20%)" stroke-width="1" cx="133.0007336625884" cy="399.37408044930453" r="4.11756466639207" fill="none"/><circle stroke="hsl(225, 94%, 20%)" stroke-width="1" cx="131.23133417986327" cy="291.08074424940435" r="8.79830370991359" fill="none"/><circle stroke="hsl(225, 94%, 20%)" stroke-width="1" cx="38.83935170918221" cy="500.93555432134013" r="13.577447774804455" fill="none"/><circle stroke="hsl(225, 94%, 20%)" stroke-width="1" cx="438.8332335386767" cy="765.9453237478662" r="4.234971239370623" fill="none"/><circle stroke="hsl(225, 94%, 20%)" stroke-width="1" cx="709.9941983908471" cy="633.340088634628" r="9.193420507670226" fill="none"/><circle stroke="hsl(225, 94%, 20%)" stroke-width="1" cx="397.04394263359416" cy="770.9882231619307" r="12.897302918186654" fill="none"/><circle stroke="hsl(225, 94%, 20%)" stroke-width="1" cx="184.46438151216975" cy="122.9704038138371" r="16.269515944248234" fill="none"/><circle stroke="hsl(225, 94%, 20%)" stroke-width="1" cx="233.92994841857876" cy="745.1227867987625" r="9.512106429499653" fill="none"/><circle stroke="hsl(225, 94%, 20%)" stroke-width="1" cx="96.36334391460645" cy="639.9453710353264" r="7.931869979436918" fill="none"/><circle stroke="hsl(225, 94%, 20%)" stroke-width="1" cx="748.2012394409455" cy="293.92504135381773" r="11.261492936459675" fill="none"/><circle stroke="hsl(225, 94%, 20%)" stroke-width="1" cx="782.7030233492646" cy="415.0796524937478" r="4.375801781560458" fill="none"/><circle stroke="hsl(225, 94%, 20%)" stroke-width="1" cx="381.6008698690928" cy="760.5308197788727" r="5.326060970159062" fill="none"/><circle stroke="hsl(225, 94%, 20%)" stroke-width="1" cx="124.76368832527032" cy="625.7896648115035" r="6.940781605641845" fill="none"/><circle stroke="hsl(225, 94%, 20%)" stroke-width="1" cx="108.22577776399294" cy="172.47460968372528" r="6.405371680646837" fill="none"/><circle stroke="hsl(225, 94%, 20%)" stroke-width="1" cx="72.12716687864099" cy="226.39007718170754" r="5.214798562973865" fill="none"/><circle stroke="hsl(225, 94%, 20%)" stroke-width="1" cx="665.8000435397823" cy="191.20743103680675" r="4.922268183943292" fill="none"/><circle stroke="hsl(225, 94%, 20%)" stroke-width="1" cx="746.9297373737788" cy="584.6314093694808" r="7.000000000000057" fill="none"/><circle stroke="hsl(225, 94%, 20%)" stroke-width="1" cx="123.35109619960849" cy="386.05783280685046" r="9.543952523677664" fill="none"/><circle stroke="hsl(225, 94%, 20%)" stroke-width="1" cx="652.9406086647615" cy="704.6917269771202" r="4.000000000000057" fill="none"/><circle stroke="hsl(225, 94%, 20%)" stroke-width="1" cx="374.11361575773304" cy="9.857852685893818" r="8.161691699940008" fill="none"/><circle stroke="hsl(225, 94%, 20%)" stroke-width="1" cx="233.72403380487364" cy="211.97525943143225" r="5.393817774454931" fill="none"/><circle stroke="hsl(225, 94%, 20%)" stroke-width="1" cx="43.06481613455753" cy="240.38084538833456" r="9.000000000000057" fill="none"/><circle stroke="hsl(225, 94%, 20%)" stroke-width="1" cx="199.06328270504918" cy="171.8762711975604" r="5.39019459630585" fill="none"/><circle stroke="hsl(225, 94%, 20%)" stroke-width="1" cx="593.9989857357751" cy="95.5572409573673" r="6.268096369674327" fill="none"/><circle stroke="hsl(225, 94%, 20%)" stroke-width="1" cx="133.11794357778587" cy="132.30994049115287" r="10.909274755324535" fill="none"/><circle stroke="hsl(225, 94%, 20%)" stroke-width="1" cx="320.19594694776856" cy="766.4100341372172" r="9.249022971516588" fill="none"/><circle stroke="hsl(225, 94%, 20%)" stroke-width="1" cx="794.7046073534211" cy="415.2732751556977" r="5.000000000000057" fill="none"/><circle stroke="hsl(225, 94%, 20%)" stroke-width="1" cx="444.2384249712657" cy="48.77505533339223" r="4.081700659003591" fill="none"/><circle stroke="hsl(225, 94%, 20%)" stroke-width="1" cx="574.3939079177603" cy="752.187116290718" r="6.683470971075852" fill="none"/><circle stroke="hsl(225, 94%, 20%)" stroke-width="1" cx="304.2576390762858" cy="767.7409418663542" r="6.7447562313374565" fill="none"/><circle stroke="hsl(225, 94%, 20%)" stroke-width="1" cx="680.4055890715802" cy="665.2710041022578" r="6.1429926161719095" fill="none"/><circle stroke="hsl(225, 94%, 20%)" stroke-width="1" cx="63.34374609232941" cy="237.09338041425687" r="8.631109886720266" fill="none"/><circle stroke="hsl(225, 94%, 20%)" stroke-width="1" cx="65.35952648525" cy="360.19103761935116" r="6.353941790009912" fill="none"/><circle stroke="hsl(225, 94%, 20%)" stroke-width="1" cx="88.75909511683295" cy="231.34325057233147" r="7.4820504472874845" fill="none"/><circle stroke="hsl(225, 94%, 20%)" stroke-width="1" cx="37.376450054212114" cy="482.99494577812976" r="4.422705451010799" fill="none"/><circle stroke="hsl(225, 94%, 20%)" stroke-width="1" cx="591.0745646855275" cy="109.14864495719439" r="7.634367482666637" fill="none"/><circle stroke="hsl(225, 94%, 20%)" stroke-width="1" cx="748.5477065447888" cy="344.1117520191608" r="7.4220893595509665" fill="none"/><circle stroke="hsl(225, 94%, 20%)" stroke-width="1" cx="590.8815166686101" cy="143.16494282459973" r="4.96241197833989" fill="none"/><circle stroke="hsl(225, 94%, 20%)" stroke-width="1" cx="174.5325076706183" cy="268.52601054695197" r="13.192464753053855" fill="none"/><circle stroke="hsl(225, 94%, 20%)" stroke-width="1" cx="128.1841410817491" cy="434.5273636487572" r="5.353844699613148" fill="none"/><circle stroke="hsl(225, 94%, 20%)" stroke-width="1" cx="192.5144046111143" cy="659.1789491955694" r="16.49594833589788" fill="none"/><circle stroke="hsl(225, 94%, 20%)" stroke-width="1" cx="579.6396379391434" cy="103.11854136525557" r="5.293110965379002" fill="none"/><circle stroke="hsl(225, 94%, 20%)" stroke-width="1" cx="254.88786666603448" cy="130.59608622132936" r="5.414434586582118" fill="none"/><circle stroke="hsl(225, 94%, 20%)" stroke-width="1" cx="226.3611278639215" cy="202.46888325301612" r="6.630473137730542" fill="none"/><circle stroke="hsl(225, 94%, 20%)" stroke-width="1" cx="497.0927934920324" cy="48.150615387899904" r="4.821219002534399" fill="none"/><circle stroke="hsl(225, 94%, 20%)" stroke-width="1" cx="492.7421722665655" cy="765.4146815376725" r="7.057159175143397" fill="none"/><circle stroke="hsl(225, 94%, 20%)" stroke-width="1" cx="701.2480113297765" cy="253.4577341861578" r="4.843216919836221" fill="none"/><circle stroke="hsl(225, 94%, 20%)" stroke-width="1" cx="656.3851521523904" cy="173.6581042851422" r="5.69811521723943" fill="none"/><circle stroke="hsl(225, 94%, 20%)" stroke-width="1" cx="783.1075123544482" cy="454.750652759454" r="12.380738002447877" fill="none"/><circle stroke="hsl(225, 94%, 20%)" stroke-width="1" cx="296.5024001421243" cy="153.87554606732175" r="8.746525783189188" fill="none"/><circle stroke="hsl(225, 94%, 20%)" stroke-width="1" cx="317.3586384130067" cy="151.3749703769795" r="4.7018564717851135" fill="none"/><circle stroke="hsl(225, 94%, 20%)" stroke-width="1" cx="649.5346517954965" cy="196.4896622937785" r="9.082462235267577" fill="none"/><circle stroke="hsl(225, 94%, 20%)" stroke-width="1" cx="574.1772368349431" cy="90.66637724207192" r="8.304470333288466" fill="none"/><circle stroke="hsl(225, 94%, 20%)" stroke-width="1" cx="751.5865807452243" cy="332.53981737438085" r="4.542208690444754" fill="none"/><circle stroke="hsl(225, 94%, 20%)" stroke-width="1" cx="580.6484768963516" cy="143.16906768259332" r="4.225303586072593" fill="none"/><circle stroke="hsl(225, 94%, 20%)" stroke-width="1" cx="123.68672650581584" cy="144.99612769424817" r="4.898546132153847" fill="none"/><circle stroke="hsl(225, 94%, 20%)" stroke-width="1" cx="79.80095636433214" cy="316.1336035422788" r="4.644155636738013" fill="none"/><circle stroke="hsl(225, 94%, 20%)" stroke-width="1" cx="489.82703420475514" cy="18.43073508735307" r="8.000000000000057" fill="none"/><circle stroke="hsl(225, 94%, 20%)" stroke-width="1" cx="748.3873255160781" cy="313.3554882306202" r="8.169844996364237" fill="none"/><circle stroke="hsl(225, 94%, 20%)" stroke-width="1" cx="85.9143171623852" cy="365.2698425510446" r="6.5661294336468305" fill="none"/><circle stroke="hsl(225, 94%, 20%)" stroke-width="1" cx="411.30392837141426" cy="60.1879619504719" r="5.549717816915859" fill="none"/><circle stroke="hsl(225, 94%, 20%)" stroke-width="1" cx="286.2257096628134" cy="140.8776141313345" r="7.823223817215663" fill="none"/><circle stroke="hsl(225, 94%, 20%)" stroke-width="1" cx="122.21875356734063" cy="274.05326867950015" r="4.974586134856956" fill="none"/><circle stroke="hsl(225, 94%, 20%)" stroke-width="1" cx="125.27878576356431" cy="175.15949108655175" r="10.857700756804409" fill="none"/><circle stroke="hsl(225, 94%, 20%)" stroke-width="1" cx="104.52498525716652" cy="612.5806097994885" r="17.227053137862043" fill="none"/><circle stroke="hsl(225, 94%, 20%)" stroke-width="1" cx="117.38079785857661" cy="585.392520293957" r="5.084136203323432" fill="none"/><circle stroke="hsl(225, 94%, 20%)" stroke-width="1" cx="518.3649000413925" cy="775.8001469374262" r="6.000000000000057" fill="none"/><circle stroke="hsl(225, 94%, 20%)" stroke-width="1" cx="618.2643551885506" cy="174.26415602716912" r="9.37006168903612" fill="none"/><circle stroke="hsl(225, 94%, 20%)" stroke-width="1" cx="704.3303704888071" cy="193.10141228576404" r="4.816852991773992" fill="none"/><circle stroke="hsl(225, 94%, 20%)" stroke-width="1" cx="535.7537343058732" cy="761.3404538963364" r="7.711522288092279" fill="none"/><circle stroke="hsl(225, 94%, 20%)" stroke-width="1" cx="172.01428125044316" cy="669.5023414485447" r="5.264378590277442" fill="none"/><circle stroke="hsl(225, 94%, 20%)" stroke-width="1" cx="66.33526051132287" cy="547.9622979746977" r="6.677125681128903" fill="none"/><circle stroke="hsl(225, 94%, 20%)" stroke-width="1" cx="459.009889571721" cy="790.567321895641" r="5.0" fill="none"/><circle stroke="hsl(225, 94%, 20%)" stroke-width="1" cx="82.48586936113031" cy="166.71738846488626" r="4.3105154358957165" fill="none"/><circle stroke="hsl(225, 94%, 20%)" stroke-width="1" cx="585.3764671092671" cy="120.9649386867543" r="5.484059004218979" fill="none"/><circle stroke="hsl(225, 94%, 20%)" stroke-width="1" cx="123.82991162538366" cy="481.6950566873944" r="11.033479004805656" fill="none"/><circle stroke="hsl(225, 94%, 20%)" stroke-width="1" cx="420.66499491422854" cy="83.67428497639509" r="5.654993487270495" fill="none"/><circle stroke="hsl(225, 94%, 20%)" stroke-width="1" cx="430.92402517004405" cy="129.7636133543773" r="6.800801102706032" fill="none"/><circle stroke="hsl(225, 94%, 20%)" stroke-width="1" cx="129.622889238269" cy="202.20915598506926" r="11.45547301872952" fill="none"/><circle stroke="hsl(225, 94%, 20%)" stroke-width="1" cx="117.39928411541177" cy="436.9030538237454" r="5.689571601146767" fill="none"/><circle stroke="hsl(225, 94%, 20%)" stroke-width="1" cx="515.2392717471138" cy="87.57575278606356" r="5.650599673402702" fill="none"/><circle stroke="hsl(225, 94%, 20%)" stroke-width="1" cx="185.66784661780292" cy="686.7502886250516" r="11.500898873331309" fill="none"/><circle stroke="hsl(225, 94%, 20%)" stroke-width="1" cx="681.7714292979815" cy="136.18024783695103" r="6.370664861076101" fill="none"/><circle stroke="hsl(225, 94%, 20%)" stroke-width="1" cx="460.5108463455964" cy="779.2023700803301" r="6.463638209634093" fill="none"/><circle stroke="hsl(225, 94%, 20%)" stroke-width="1" cx="78.45903556750915" cy="557.4020590456925" r="8.688257838018066" fill="none"/><circle stroke="hsl(225, 94%, 20%)" stroke-width="1" cx="423.3541272279828" cy="9.698085142515367" r="5.695249742860849" fill="none"/><circle stroke="hsl(225, 94%, 20%)" stroke-width="1" cx="126.3569518226476" cy="413.9814943481451" r="8.7641838974194" fill="none"/><circle stroke="hsl(225, 94%, 20%)" stroke-width="1" cx="165.04522559549852" cy="596.0414598612493" r="4.315514869040442" fill="none"/><circle stroke="hsl(225, 94%, 20%)" stroke-width="1" cx="139.4376131202007" cy="599.2266110325169" r="10.27400051895632" fill="none"/><circle stroke="hsl(225, 94%, 20%)" stroke-width="1" cx="384.9276871138557" cy="792.7108674129889" r="7.0" fill="none"/><circle stroke="hsl(225, 94%, 20%)" stroke-width="1" cx="726.22519185907" cy="267.78379752650244" r="4.46952428668525" fill="none"/><circle stroke="hsl(225, 94%, 20%)" stroke-width="1" cx="150.572571277524" cy="564.8846803098886" r="4.5517014933319615" fill="none"/><circle stroke="hsl(225, 94%, 20%)" stroke-width="1" cx="637.5110412535589" cy="715.6160725987354" r="5.0" fill="none"/><circle stroke="hsl(225, 94%, 20%)" stroke-width="1" cx="344.097612543567" cy="31.212902779027786" r="13.297674082511609" fill="none"/><circle stroke="hsl(225, 94%, 20%)" stroke-width="1" cx="778.9531207423242" cy="371.81255102614904" r="5.599185029416269" fill="none"/><circle stroke="hsl(225, 94%, 20%)" stroke-width="1" cx="108.88062892604256" cy="487.5529084925423" r="5.022531738710107" fill="none"/><circle stroke="hsl(225, 94%, 20%)" stroke-width="1" cx="761.4392890146444" cy="342.40103858064424" r="5.582503638532822" fill="none"/><circle stroke="hsl(225, 94%, 20%)" stroke-width="1" cx="215.93593502461368" cy="720.9679423006864" r="4.045717214347025" fill="none"/><circle stroke="hsl(225, 94%, 20%)" stroke-width="1" cx="300.0273532305793" cy="130.97496418006625" r="9.163472189630596" fill="none"/><circle stroke="hsl(225, 94%, 20%)" stroke-width="1" cx="154.86829478032985" cy="319.5360509538791" r="4.5466129323560835" fill="none"/><circle stroke="hsl(225, 94%, 20%)" stroke-width="1" cx="159.39039465285512" cy="86.73969639500888" r="5.0" fill="none"/><circle stroke="hsl(225, 94%, 20%)" stroke-width="1" cx="25.498422905913287" cy="356.6690785461258" r="8.481943549446534" fill="none"/><circle stroke="hsl(225, 94%, 20%)" stroke-width="1" cx="87.18092058730866" cy="488.143199144326" r="4.647834064861655" fill="none"/><circle stroke="hsl(225, 94%, 20%)" stroke-width="1" cx="481.1117367510984" cy="771.2423550205722" r="5.951638175216445" fill="none"/><circle stroke="hsl(225, 94%, 20%)" stroke-width="1" cx="32.15394830408036" cy="526.531744047582" r="6.434991673643138" fill="none"/><circle stroke="hsl(225, 94%, 20%)" stroke-width="1" cx="361.13648691431547" cy="7.92140156514688" r="4.959120621014149" fill="none"/><circle stroke="hsl(225, 94%, 20%)" stroke-width="1" cx="310.0878170004631" cy="748.5911636118417" r="11.237226998443965" fill="none"/><circle stroke="hsl(225, 94%, 20%)" stroke-width="1" cx="158.78897687946824" cy="98.6476442349483" r="6.923125642920301" fill="none"/><circle stroke="hsl(225, 94%, 20%)" stroke-width="1" cx="120.52657536952961" cy="514.449136848282" r="6.212566478383266" fill="none"/><circle stroke="hsl(225, 94%, 20%)" stroke-width="1" cx="153.55753783779795" cy="124.01791209676014" r="8.116488492670737" fill="none"/><circle stroke="hsl(225, 94%, 20%)" stroke-width="1" cx="532.5410048710341" cy="86.89796866232808" r="8.98087630825541" fill="none"/><circle stroke="hsl(225, 94%, 20%)" stroke-width="1" cx="294.2497460881665" cy="777.4664008856719" r="7.210259899003443" fill="none"/><circle stroke="hsl(225, 94%, 20%)" stroke-width="1" cx="512.4185911729786" cy="27.598254087493956" r="11.0" fill="none"/><circle stroke="hsl(225, 94%, 20%)" stroke-width="1" cx="765.3549445060098" cy="255.20785751633338" r="7.000000000000057" fill="none"/><circle stroke="hsl(225, 94%, 20%)" stroke-width="1" cx="316.72353744635245" cy="22.066102625669544" r="5.243799232434437" fill="none"/><circle stroke="hsl(225, 94%, 20%)" stroke-width="1" cx="329.25886948262615" cy="12.402667123309698" r="6.000000000000057" fill="none"/><circle stroke="hsl(225, 94%, 20%)" stroke-width="1" cx="168.96000526430305" cy="94.53392850837076" r="4.048313436991085" fill="none"/><circle stroke="hsl(225, 94%, 20%)" stroke-width="1" cx="785.0836905199111" cy="316.6540265185815" r="6.0" fill="none"/><circle stroke="hsl(225, 94%, 20%)" stroke-width="1" cx="30.5248068500901" cy="269.0340439395153" r="7.999999999999943" fill="none"/><circle stroke="hsl(225, 94%, 20%)" stroke-width="1" cx="213.46520400717975" cy="54.08993960291224" r="4.716217195031611" fill="none"/><circle stroke="hsl(225, 94%, 20%)" stroke-width="1" cx="582.6794087045287" cy="56.562620503586174" r="11.0" fill="none"/><circle stroke="hsl(225, 94%, 20%)" stroke-width="1" cx="112.08357965698406" cy="406.93793174251147" r="4.900173487438543" fill="none"/><circle stroke="hsl(225, 94%, 20%)" stroke-width="1" cx="141.51790180764743" cy="176.05579955248004" r="5.406132086633587" fill="none"/><circle stroke="hsl(225, 94%, 20%)" stroke-width="1" cx="778.1942534949251" cy="477.23410272293114" r="9.85629114877259" fill="none"/><circle stroke="hsl(225, 94%, 20%)" stroke-width="1" cx="434.04887310515727" cy="778.4714972626987" r="9.173799311336781" fill="none"/><circle stroke="hsl(225, 94%, 20%)" stroke-width="1" cx="17.04377079803305" cy="492.63113145919425" r="6.000000000000057" fill="none"/><circle stroke="hsl(225, 94%, 20%)" stroke-width="1" cx="55.27645920086144" cy="488.89139676540515" r="4.847678935413027" fill="none"/><circle stroke="hsl(225, 94%, 20%)" stroke-width="1" cx="516.3075053088137" cy="102.95864899169294" r="6.983273341710401" fill="none"/><circle stroke="hsl(225, 94%, 20%)" stroke-width="1" cx="144.00857053644177" cy="585.2684215974327" r="4.413569191747477" fill="none"/><circle stroke="hsl(225, 94%, 20%)" stroke-width="1" cx="48.093378964924" cy="526.6401597901528" r="9.504807690372694" fill="none"/><circle stroke="hsl(225, 94%, 20%)" stroke-width="1" cx="250.80574098922258" cy="112.39424018593598" r="6.616366491172528" fill="none"/><circle stroke="hsl(225, 94%, 20%)" stroke-width="1" cx="762.2763609819472" cy="484.4975637144526" r="5.4708077703090225" fill="none"/><circle stroke="hsl(225, 94%, 20%)" stroke-width="1" cx="694.3063033227791" cy="660.4473071937591" r="7.000000000000057" fill="none"/><circle stroke="hsl(225, 94%, 20%)" stroke-width="1" cx="325.76698489227107" cy="750.2191591960893" r="4.526233135734458" fill="none"/><circle stroke="hsl(225, 94%, 20%)" stroke-width="1" cx="136.9132801535285" cy="186.20950011652948" r="5.187988984453124" fill="none"/><circle stroke="hsl(225, 94%, 20%)" stroke-width="1" cx="772.4948522203033" cy="348.7790563404544" r="5.5762885175680985" fill="none"/><circle stroke="hsl(225, 94%, 20%)" stroke-width="1" cx="48.07237364766155" cy="361.7515253897772" r="4.180423094671994" fill="none"/><circle stroke="hsl(225, 94%, 20%)" stroke-width="1" cx="251.95028089517038" cy="720.4532425689918" r="7.4267064438183965" fill="none"/><circle stroke="hsl(225, 94%, 20%)" stroke-width="1" cx="416.70140392146976" cy="100.46525559285794" r="6.458884032602228" fill="none"/><circle stroke="hsl(225, 94%, 20%)" stroke-width="1" cx="741.4228887189661" cy="327.67150589984266" r="6.575639745849571" fill="none"/><circle stroke="hsl(225, 94%, 20%)" stroke-width="1" cx="127.2989701002835" cy="611.3271120600334" r="5.581402360425006" fill="none"/><circle stroke="hsl(225, 94%, 20%)" stroke-width="1" cx="504.6400353642707" cy="772.5848400015279" r="6.834216519456934" fill="none"/><circle stroke="hsl(225, 94%, 20%)" stroke-width="1" cx="418.46792111373804" cy="771.5412976907637" r="6.754669380897585" fill="none"/><circle stroke="hsl(225, 94%, 20%)" stroke-width="1" cx="742.2410842079087" cy="571.9303355437753" r="6.538860544220279" fill="none"/><circle stroke="hsl(225, 94%, 20%)" stroke-width="1" cx="135.76792512038287" cy="164.4211159615268" r="4.153453255213281" fill="none"/><circle stroke="hsl(225, 94%, 20%)" stroke-width="1" cx="361.21310345194615" cy="19.974242114865888" r="7.093963441199527" fill="none"/><circle stroke="hsl(225, 94%, 20%)" stroke-width="1" cx="39.1358569525741" cy="537.0148541678855" r="4.2018142141335755" fill="none"/><circle stroke="hsl(225, 94%, 20%)" stroke-width="1" cx="777.0089831840178" cy="296.34081517514744" r="5.364978380938412" fill="none"/><circle stroke="hsl(225, 94%, 20%)" stroke-width="1" cx="791.293740416408" cy="363.4184648909222" r="7.000000000000057" fill="none"/><circle stroke="hsl(225, 94%, 20%)" stroke-width="1" cx="98.74766193686429" cy="488.5608763026552" r="5.1604451889864436" fill="none"/><circle stroke="hsl(225, 94%, 20%)" stroke-width="1" cx="174.03605104825724" cy="723.9834776252243" r="4.313438723451821" fill="none"/><circle stroke="hsl(225, 94%, 20%)" stroke-width="1" cx="487.4677305153986" cy="50.78746282745573" r="5.158500518757696" fill="none"/><circle stroke="hsl(225, 94%, 20%)" stroke-width="1" cx="18.354267044294375" cy="505.65289639523485" r="4.0" fill="none"/><circle stroke="hsl(225, 94%, 20%)" stroke-width="1" cx="590.8938661608678" cy="129.5919160562009" r="4.756372179454296" fill="none"/><circle stroke="hsl(225, 94%, 20%)" stroke-width="1" cx="93.39384789486923" cy="592.4491296194541" r="5.776831604012482" fill="none"/><circle stroke="hsl(225, 94%, 20%)" stroke-width="1" cx="727.2507488262038" cy="612.1484088855934" r="9.999999999999943" fill="none"/><circle stroke="hsl(225, 94%, 20%)" stroke-width="1" cx="603.0681933130469" cy="172.42955186453793" r="5.267791769895439" fill="none"/><circle stroke="hsl(225, 94%, 20%)" stroke-width="1" cx="105.47506374091296" cy="136.78894035094055" r="4.999999999999943" fill="none"/><circle stroke="hsl(225, 94%, 20%)" stroke-width="1" cx="470.17382186464147" cy="767.3576387186056" r="5.655644142800188" fill="none"/><circle stroke="hsl(225, 94%, 20%)" stroke-width="1" cx="127.33653073692909" cy="448.8224592726173" r="5.872149118930281" fill="none"/><circle stroke="hsl(225, 94%, 20%)" stroke-width="1" cx="615.817645403248" cy="82.38585684419229" r="10.120173593313176" fill="none"/><circle stroke="hsl(225, 94%, 20%)" stroke-width="1" cx="603.5232962106851" cy="74.37096582224467" r="4.5559805405997125" fill="none"/><circle stroke="hsl(225, 94%, 20%)" stroke-width="1" cx="304.6918257241353" cy="78.8437266435522" r="6.355794335134114" fill="none"/><circle stroke="hsl(225, 94%, 20%)" stroke-width="1" cx="13.864039441085936" cy="461.48186694664366" r="4.1391769785900205" fill="none"/><circle stroke="hsl(225, 94%, 20%)" stroke-width="1" cx="314.0368437520767" cy="779.3828353627706" r="5.111621993557309" fill="none"/><circle stroke="hsl(225, 94%, 20%)" stroke-width="1" cx="508.7001268890039" cy="760.9893106648927" r="5.435964046715128" fill="none"/><circle stroke="hsl(225, 94%, 20%)" stroke-width="1" cx="49.29036526302758" cy="278.9886282093315" r="5.2374430020846745" fill="none"/><circle stroke="hsl(225, 94%, 20%)" stroke-width="1" cx="114.5074160851679" cy="189.0047760501851" r="4.660859536341555" fill="none"/><circle stroke="hsl(225, 94%, 20%)" stroke-width="1" cx="311.50280030408356" cy="137.51715171085732" r="4.045846612822297" fill="none"/><circle stroke="hsl(225, 94%, 20%)" stroke-width="1" cx="211.25352107261088" cy="736.7057568449234" r="6.549963817766699" fill="none"/><circle stroke="hsl(225, 94%, 20%)" stroke-width="1" cx="764.2869612976799" cy="311.0055629350761" r="5.277283793437755" fill="none"/><circle stroke="hsl(225, 94%, 20%)" stroke-width="1" cx="222.51671402457418" cy="56.097858105877435" r="4.555329078893887" fill="none"/><circle stroke="hsl(225, 94%, 20%)" stroke-width="1" cx="271.93239526913084" cy="184.13038977545298" r="4.155694491301858" fill="none"/><circle stroke="hsl(225, 94%, 20%)" stroke-width="1" cx="720.9688997310507" cy="290.91303741766944" r="4.382689170040635" fill="none"/><circle stroke="hsl(225, 94%, 20%)" stroke-width="1" cx="735.6613121950165" cy="272.6717490282706" r="6.157443148952288" fill="none"/><circle stroke="hsl(225, 94%, 20%)" stroke-width="1" cx="121.94359989221277" cy="260.69587816902856" r="6.5816911577351895" fill="none"/><circle stroke="hsl(225, 94%, 20%)" stroke-width="1" cx="655.4693720465316" cy="686.6904252781226" r="4.027436807248705" fill="none"/><circle stroke="hsl(225, 94%, 20%)" stroke-width="1" cx="200.88417285802657" cy="155.91418029396348" r="4.297218893526249" fill="none"/><circle stroke="hsl(225, 94%, 20%)" stroke-width="1" cx="71.98482428227237" cy="337.0552265961003" r="6.53519998089579" fill="none"/><circle stroke="hsl(225, 94%, 20%)" stroke-width="1" cx="479.54832546659316" cy="33.534361889875186" r="10.269411482415897" fill="none"/><circle stroke="hsl(225, 94%, 20%)" stroke-width="1" cx="599.7534054201938" cy="60.39055221764562" r="6.000000000000057" fill="none"/><circle stroke="hsl(225, 94%, 20%)" stroke-width="1" cx="67.4451738016981" cy="605.6411621544121" r="9.0" fill="none"/><circle stroke="hsl(225, 94%, 20%)" stroke-width="1" cx="56.6211611440508" cy="540.470541488029" r="4.476811724380886" fill="none"/><circle stroke="hsl(225, 94%, 20%)" stroke-width="1" cx="113.78065957356398" cy="421.15393972422" r="5.247963715990402" fill="none"/><circle stroke="hsl(225, 94%, 20%)" stroke-width="1" cx="50.40834948867604" cy="351.06455382068793" r="4.922966921284662" fill="none"/><circle stroke="hsl(225, 94%, 20%)" stroke-width="1" cx="642.2815018610889" cy="706.8886994594867" r="4.946071401295862" fill="none"/><circle stroke="hsl(225, 94%, 20%)" stroke-width="1" cx="578.2595602480518" cy="71.21507154346142" r="4.304554284727214" fill="none"/><circle stroke="hsl(225, 94%, 20%)" stroke-width="1" cx="516.2569847213921" cy="70.93266114138584" r="4.45101992305851" fill="none"/><circle stroke="hsl(225, 94%, 20%)" stroke-width="1" cx="732.225967095085" cy="293.10328916315774" r="4.734900506665868" fill="none"/><circle stroke="hsl(225, 94%, 20%)" stroke-width="1" cx="139.27994599823046" cy="223.22315354856462" r="8.275157552963982" fill="none"/><circle stroke="hsl(225, 94%, 20%)" stroke-width="1" cx="141.81026510684723" cy="237.63294424113155" r="4.994286913575632" fill="none"/><circle stroke="hsl(225, 94%, 20%)" stroke-width="1" cx="779.0037894633895" cy="500.10058727295655" r="7.999999999999943" fill="none"/><circle stroke="hsl(225, 94%, 20%)" stroke-width="1" cx="236.90293923471708" cy="192.40580747591804" r="6.568970788144231" fill="none"/><circle stroke="hsl(225, 94%, 20%)" stroke-width="1" cx="248.4849458587665" cy="95.62656428561462" r="6.086344752818633" fill="none"/><circle stroke="hsl(225, 94%, 20%)" stroke-width="1" cx="700.9233596717112" cy="646.507873310144" r="6.796284565573872" fill="none"/><circle stroke="hsl(225, 94%, 20%)" stroke-width="1" cx="721.6664152933157" cy="181.24964623491886" r="7.875512369588087" fill="none"/><circle stroke="hsl(225, 94%, 20%)" stroke-width="1" cx="113.46532653328035" cy="129.5672340463894" r="5.770206193025551" fill="none"/><circle stroke="hsl(225, 94%, 20%)" stroke-width="1" cx="794.9156853412877" cy="391.8390275444033" r="5.000000000000057" fill="none"/><circle stroke="hsl(225, 94%, 20%)" stroke-width="1" cx="99.12168215129316" cy="478.6971273207133" r="4.4308590187091035" fill="none"/><circle stroke="hsl(225, 94%, 20%)" stroke-width="1" cx="64.05126534893418" cy="347.6698205014757" r="6.235435689189416" fill="none"/><circle stroke="hsl(225, 94%, 20%)" stroke-width="1" cx="784.2104705636289" cy="424.6437478739527" r="5.306363138835753" fill="none"/><circle stroke="hsl(225, 94%, 20%)" stroke-width="1" cx="598.2531994977455" cy="730.0313150125411" r="4.307563692243701" fill="none"/><circle stroke="hsl(225, 94%, 20%)" stroke-width="1" cx="168.4942055438079" cy="103.72130158715873" r="4.028288071973288" fill="none"/><circle stroke="hsl(225, 94%, 20%)" stroke-width="1" cx="150.2631978767761" cy="160.5265574948535" r="4.280822897078611" fill="none"/><circle stroke="hsl(225, 94%, 20%)" stroke-width="1" cx="122.27859250133321" cy="459.38703408118187" r="4.1722017363929" fill="none"/><circle stroke="hsl(225, 94%, 20%)" stroke-width="1" cx="326.97843937672883" cy="787.174187781342" r="6.000000000000114" fill="none"/><circle stroke="hsl(225, 94%, 20%)" stroke-width="1" cx="302.2290605296905" cy="25.553951289250392" r="7.249034755088356" fill="none"/><circle stroke="hsl(225, 94%, 20%)" stroke-width="1" cx="296.32401299871054" cy="111.03583315693197" r="5.574080744848716" fill="none"/><circle stroke="hsl(225, 94%, 20%)" stroke-width="1" cx="111.78310566755476" cy="446.8510599811798" r="4.181618463844934" fill="none"/><circle stroke="hsl(225, 94%, 20%)" stroke-width="1" cx="238.16109652273138" cy="102.12558129091491" r="6.1127981329883525" fill="none"/><circle stroke="hsl(225, 94%, 20%)" stroke-width="1" cx="422.73012228747785" cy="110.89216278212672" r="5.32329144850965" fill="none"/><circle stroke="hsl(225, 94%, 20%)" stroke-width="1" cx="694.6009525607392" cy="246.9174119950115" r="4.481975016152946" fill="none"/><circle stroke="hsl(225, 94%, 20%)" stroke-width="1" cx="754.118859591954" cy="548.5120644301128" r="4.000013856480795" fill="none"/><circle stroke="hsl(225, 94%, 20%)" stroke-width="1" cx="37.12612645125279" cy="254.38560546522936" r="6.211881539309163" fill="none"/><circle stroke="hsl(225, 94%, 20%)" stroke-width="1" cx="783.4928215980997" cy="305.35193724788644" r="5.000000000000057" fill="none"/><circle stroke="hsl(225, 94%, 20%)" stroke-width="1" cx="729.2224668888108" cy="595.7078621201658" r="6.172833026714898" fill="none"/><circle stroke="hsl(225, 94%, 20%)" stroke-width="1" cx="133.99395122385312" cy="510.3847000924592" r="5.195824917626737" fill="none"/><circle stroke="hsl(225, 94%, 20%)" stroke-width="1" cx="436.2557233086787" cy="53.893769880742354" r="5.401166230873306" fill="none"/><circle stroke="hsl(225, 94%, 20%)" stroke-width="1" cx="43.14505732992109" cy="567.004640330545" r="4.598398714000499" fill="none"/><circle stroke="hsl(225, 94%, 20%)" stroke-width="1" cx="25.2793756766589" cy="281.53712097570184" r="5.558815714066643" fill="none"/><circle stroke="hsl(225, 94%, 20%)" stroke-width="1" cx="591.9898898394584" cy="73.22655830157709" r="7.034063941506988" fill="none"/><circle stroke="hsl(225, 94%, 20%)" stroke-width="1" cx="156.46885619851847" cy="591.8139254557451" r="5.2461878654717555" fill="none"/><circle stroke="hsl(225, 94%, 20%)" stroke-width="1" cx="225.99050245512214" cy="220.49876110684042" r="4.4104513035183" fill="none"/><circle stroke="hsl(225, 94%, 20%)" stroke-width="1" cx="725.7267745040485" cy="277.5007413443302" r="4.888560921381318" fill="none"/><circle stroke="hsl(225, 94%, 20%)" stroke-width="1" cx="5.77105546907228" cy="362.5895830813034" r="4.000000000000057" fill="none"/><circle stroke="hsl(225, 94%, 20%)" stroke-width="1" cx="249.10914691666568" cy="699.0935480009283" r="5.505332830956888" fill="none"/><circle stroke="hsl(225, 94%, 20%)" stroke-width="1" cx="258.36583492730676" cy="710.1947183369844" r="4.672742012947907" fill="none"/><circle stroke="hsl(225, 94%, 20%)" stroke-width="1" cx="494.86403384836615" cy="39.26489624377274" r="4.339751156654163" fill="none"/><circle stroke="hsl(225, 94%, 20%)" stroke-width="1" cx="416.6182759753036" cy="72.4212569417719" r="4.553410621832928" fill="none"/><circle stroke="hsl(225, 94%, 20%)" stroke-width="1" cx="164.3859564602473" cy="114.71764427702948" r="5.43880486916423" fill="none"/><circle stroke="hsl(225, 94%, 20%)" stroke-width="1" cx="436.4141719253804" cy="794.3222135297336" r="4.0" fill="none"/><circle stroke="hsl(225, 94%, 20%)" stroke-width="1" cx="76.46688019875774" cy="359.9710056124935" r="4.265848136634036" fill="none"/><circle stroke="hsl(225, 94%, 20%)" stroke-width="1" cx="417.8315921710761" cy="123.57454111344157" r="7.680787796167786" fill="none"/><circle stroke="hsl(225, 94%, 20%)" stroke-width="1" cx="448.1526502480649" cy="770.8872096393828" r="6.313666775463101" fill="none"/><circle stroke="hsl(225, 94%, 20%)" stroke-width="1" cx="129.63987889571098" cy="683.8475029245003" r="7.999999999999943" fill="none"/><circle stroke="hsl(225, 94%, 20%)" stroke-width="1" cx="135.99664577795977" cy="582.6012841124398" r="4.0306335947464245" fill="none"/><circle stroke="hsl(225, 94%, 20%)" stroke-width="1" cx="698.0709713916272" cy="232.31667938148473" r="7.976581481521681" fill="none"/><circle stroke="hsl(225, 94%, 20%)" stroke-width="1" cx="158.25216352907458" cy="582.6663175345326" r="4.073625207516622" fill="none"/><circle stroke="hsl(225, 94%, 20%)" stroke-width="1" cx="176.82901843005962" cy="101.12927044437868" r="4.700270302350004" fill="none"/><circle stroke="hsl(225, 94%, 20%)" stroke-width="1" cx="755.6726830722582" cy="559.9904450777636" r="4.788308413756255" fill="none"/><circle stroke="hsl(225, 94%, 20%)" stroke-width="1" cx="115.11035043527681" cy="154.61481794760056" r="7.008011518146478" fill="none"/><circle stroke="hsl(225, 94%, 20%)" stroke-width="1" cx="124.24544833433885" cy="504.80661828181553" r="4.122237846471659" fill="none"/><circle stroke="hsl(225, 94%, 20%)" stroke-width="1" cx="772.9254898146085" cy="338.270112210256" r="4.941475287978243" fill="none"/><circle stroke="hsl(225, 94%, 20%)" stroke-width="1" cx="633.0585413377357" cy="707.7006927348832" r="4.081739584984929" fill="none"/><circle stroke="hsl(225, 94%, 20%)" stroke-width="1" cx="634.6288380567463" cy="192.8326561638125" r="4.65719472234446" fill="none"/><circle stroke="hsl(225, 94%, 20%)" stroke-width="1" cx="513.485908024813" cy="132.04114368100528" r="5.344157160063942" fill="none"/><circle stroke="hsl(225, 94%, 20%)" stroke-width="1" cx="169.02209974637142" cy="82.0405535379947" r="5.7168879157661845" fill="none"/><circle stroke="hsl(225, 94%, 20%)" stroke-width="1" cx="746.4978095420831" cy="556.0104739513929" r="5.212615266657087" fill="none"/><circle stroke="hsl(225, 94%, 20%)" stroke-width="1" cx="507.9619541908936" cy="121.17170795042443" r="5.967541244007833" fill="none"/><circle stroke="hsl(225, 94%, 20%)" stroke-width="1" cx="115.46520696512317" cy="140.64512429375884" r="4.403314657444174" fill="none"/><circle stroke="hsl(225, 94%, 20%)" stroke-width="1" cx="228.21432812092937" cy="112.39839545465628" r="5.8568500033655475" fill="none"/><circle stroke="hsl(225, 94%, 20%)" stroke-width="1" cx="546.0380760710603" cy="76.42948166209084" r="4.301281736381906" fill="none"/><circle stroke="hsl(225, 94%, 20%)" stroke-width="1" cx="476.82201023812706" cy="14.581553706918328" r="5.562700530206163" fill="none"/><circle stroke="hsl(225, 94%, 20%)" stroke-width="1" cx="162.50660631999577" cy="137.48735657428892" r="4.360767896059858" fill="none"/><circle stroke="hsl(225, 94%, 20%)" stroke-width="1" cx="127.33114284682443" cy="217.69340566292962" r="4.197452893348961" fill="none"/><circle stroke="hsl(225, 94%, 20%)" stroke-width="1" cx="206.4034583284469" cy="122.93614625358543" r="4.400486275992279" fill="none"/><circle stroke="hsl(225, 94%, 20%)" stroke-width="1" cx="309.9743572864779" cy="122.22422054106795" r="4.08486370298372" fill="none"/><circle stroke="hsl(225, 94%, 20%)" stroke-width="1" cx="208.72460869101846" cy="165.0048411571081" r="4.828253588711622" fill="none"/><circle stroke="hsl(225, 94%, 20%)" stroke-width="1" cx="216.4953846829149" cy="109.0325513784598" r="4.056716665080845" fill="none"/><circle stroke="hsl(225, 94%, 20%)" stroke-width="1" cx="649.9073040399369" cy="694.1807937093965" r="5.302205187287308" fill="none"/><circle stroke="hsl(225, 94%, 20%)" stroke-width="1" cx="136.16606661717884" cy="375.16744886748273" r="5.718146554621001" fill="none"/><circle stroke="hsl(225, 94%, 20%)" stroke-width="1" cx="130.45141769530676" cy="495.60105531598504" r="4.368505948192862" fill="none"/><circle stroke="hsl(225, 94%, 20%)" stroke-width="1" cx="794.5576808592905" cy="433.7673877422919" r="4.0" fill="none"/><circle stroke="hsl(225, 94%, 20%)" stroke-width="1" cx="458.64863677768983" cy="766.3350070688284" r="4.79561804677877" fill="none"/><circle stroke="hsl(225, 94%, 20%)" stroke-width="1" cx="430.6962288133629" cy="41.31107971302254" r="4.352530172512129" fill="none"/><circle stroke="hsl(225, 94%, 20%)" stroke-width="1" cx="770.3793524076477" cy="329.6570166250285" r="4.040074202805062" fill="none"/><circle stroke="hsl(225, 94%, 20%)" stroke-width="1" cx="285.97875603606843" cy="23.90406021213471" r="5.884930330118024" fill="none"/><circle stroke="hsl(225, 94%, 20%)" stroke-width="1" cx="149.5120562410671" cy="575.7606043213941" r="6.37580578173279" fill="none"/><circle stroke="hsl(225, 94%, 20%)" stroke-width="1" cx="554.4156618897096" cy="761.3928656782849" r="4.244531673193292" fill="none"/><circle stroke="hsl(225, 94%, 20%)" stroke-width="1" cx="306.4368244355462" cy="162.78505068546966" r="4.597838517238541" fill="none"/><circle stroke="hsl(225, 94%, 20%)" stroke-width="1" cx="46.53011977655393" cy="260.50432345472956" r="5.007467831190974" fill="none"/><circle stroke="hsl(225, 94%, 20%)" stroke-width="1" cx="562.781154310743" cy="62.1726834590458" r="4.114033632935026" fill="none"/><circle stroke="hsl(225, 94%, 20%)" stroke-width="1" cx="363.4556534899251" cy="36.83404518298863" r="6.859979332667567" fill="none"/><circle stroke="hsl(225, 94%, 20%)" stroke-width="1" cx="83.0920366029336" cy="629.0203980773845" r="8.999999999999943" fill="none"/><circle stroke="hsl(225, 94%, 20%)" stroke-width="1" cx="127.18319893328379" cy="156.01845755114223" r="5.146159576274561" fill="none"/><circle stroke="hsl(225, 94%, 20%)" stroke-width="1" cx="50.02663729664221" cy="219.01755500020465" r="6.000000000000057" fill="none"/><circle stroke="hsl(225, 94%, 20%)" stroke-width="1" cx="778.5757952776377" cy="324.6583300563085" r="4.316083346332299" fill="none"/><circle stroke="hsl(225, 94%, 20%)" stroke-width="1" cx="680.1548308887429" cy="125.81526167618318" r="4.11963201411583" fill="none"/><circle stroke="hsl(225, 94%, 20%)" stroke-width="1" cx="9.66923289591324" cy="377.1331626162432" r="6.4254223029319615" fill="none"/><circle stroke="hsl(225, 94%, 20%)" stroke-width="1" cx="567.3057983045703" cy="80.10975342522488" r="4.29152005600262" fill="none"/><circle stroke="hsl(225, 94%, 20%)" stroke-width="1" cx="731.8214852878252" cy="189.42103167366963" r="5.158941457942076" fill="none"/><circle stroke="hsl(225, 94%, 20%)" stroke-width="1" cx="572.2452453983246" cy="43.42241315855125" r="4.0" fill="none"/><circle stroke="hsl(225, 94%, 20%)" stroke-width="1" cx="449.5907824943415" cy="787.8424348773596" r="4.805334639752941" fill="none"/><circle stroke="hsl(225, 94%, 20%)" stroke-width="1" cx="585.6465535970076" cy="82.25897788048621" r="4.003259925003924" fill="none"/><circle stroke="hsl(225, 94%, 20%)" stroke-width="1" cx="379.9947378515691" cy="772.4631384263046" r="4.1090772761527035" fill="none"/><circle stroke="hsl(225, 94%, 20%)" stroke-width="1" cx="739.4645555253528" cy="594.0227191386994" r="4.206959192148091" fill="none"/><circle stroke="hsl(225, 94%, 20%)" stroke-width="1" cx="14.464321442766334" cy="341.15919307645925" r="4.898558273678908" fill="none"/><circle stroke="hsl(225, 94%, 20%)" stroke-width="1" cx="494.03751410449775" cy="781.5834717870343" r="6.999999999999943" fill="none"/><circle stroke="hsl(225, 94%, 20%)" stroke-width="1" cx="563.1910580593905" cy="758.6149447101398" r="4.960055381102563" fill="none"/><circle stroke="hsl(225, 94%, 20%)" stroke-width="1" cx="685.9829671375287" cy="233.34243939378223" r="4.154866513253337" fill="none"/><circle stroke="hsl(225, 94%, 20%)" stroke-width="1" cx="303.22590834565005" cy="62.604423288515136" r="7.110212232962404" fill="none"/><circle stroke="hsl(225, 94%, 20%)" stroke-width="1" cx="755.2774971674323" cy="572.6351644551166" r="4.999999999999943" fill="none"/><circle stroke="hsl(225, 94%, 20%)" stroke-width="1" cx="111.01108935088854" cy="397.4682966524721" r="4.630000917847761" fill="none"/><circle stroke="hsl(225, 94%, 20%)" stroke-width="1" cx="113.24972648181284" cy="506.8189151660175" r="4.331285410521668" fill="none"/><circle stroke="hsl(225, 94%, 20%)" stroke-width="1" cx="783.0186683131175" cy="352.11785589965586" r="5.464467237899836" fill="none"/><circle stroke="hsl(225, 94%, 20%)" stroke-width="1" cx="244.5699617903399" cy="731.3570630334347" r="4.4664524224553155" fill="none"/><circle stroke="hsl(225, 94%, 20%)" stroke-width="1" cx="85.14065952596121" cy="586.6000957026906" r="4.3388154841439555" fill="none"/><circle stroke="hsl(225, 94%, 20%)" stroke-width="1" cx="237.99428279755577" cy="92.00950080607737" r="4.004657633883962" fill="none"/><circle stroke="hsl(225, 94%, 20%)" stroke-width="1" cx="763.2406970734186" cy="444.8575076170864" r="4.476372412357932" fill="none"/><circle stroke="hsl(225, 94%, 20%)" stroke-width="1" cx="352.5974056878298" cy="12.891495763170042" r="4.059311586569693" fill="none"/><circle stroke="hsl(225, 94%, 20%)" stroke-width="1" cx="152.68306332587298" cy="180.01060745089129" r="6.43875445741573" fill="none"/><circle stroke="hsl(225, 94%, 20%)" stroke-width="1" cx="131.30398968519728" cy="266.57416276857236" r="4.471413696098523" fill="none"/><circle stroke="hsl(225, 94%, 20%)" stroke-width="1" cx="791.5536115360408" cy="381.29787998425496" r="6.064327008758701" fill="none"/><circle stroke="hsl(225, 94%, 20%)" stroke-width="1" cx="53.77976569382275" cy="250.80030376379537" r="5.945743771908999" fill="none"/><circle stroke="hsl(225, 94%, 20%)" stroke-width="1" cx="521.0007731771955" cy="760.2205059273012" r="6.888684420147685" fill="none"/><circle stroke="hsl(225, 94%, 20%)" stroke-width="1" cx="103.77738792617578" cy="590.1477428111116" r="4.858688356166171" fill="none"/><circle stroke="hsl(225, 94%, 20%)" stroke-width="1" cx="555.5131009348319" cy="73.10601804616715" r="4.099656319879433" fill="none"/><circle stroke="hsl(225, 94%, 20%)" stroke-width="1" cx="71.80883763580471" cy="484.9209099458927" r="4.211236130892193" fill="none"/><circle stroke="hsl(225, 94%, 20%)" stroke-width="1" cx="81.00838606541822" cy="600.9312077289408" r="5.357729541983463" fill="none"/><circle stroke="hsl(225, 94%, 20%)" stroke-width="1" cx="151.51676793585966" cy="660.492002531668" r="4.946988695253072" fill="none"/><circle stroke="hsl(225, 94%, 20%)" stroke-width="1" cx="759.8039175145088" cy="327.6802866348838" r="5.004500825820635" fill="none"/><circle stroke="hsl(225, 94%, 20%)" stroke-width="1" cx="768.1728222621131" cy="268.3574045092148" r="4.538017981144538" fill="none"/><circle stroke="hsl(225, 94%, 20%)" stroke-width="1" cx="40.17978038734543" cy="280.96047060786486" r="4.08408687351311" fill="none"/><circle stroke="hsl(225, 94%, 20%)" stroke-width="1" cx="110.84808913640683" cy="497.0369643173809" r="4.663448571409344" fill="none"/><circle stroke="hsl(225, 94%, 20%)" stroke-width="1" cx="334.88542790802904" cy="746.9424916341029" r="5.163067837163402" fill="none"/><circle stroke="hsl(225, 94%, 20%)" stroke-width="1" cx="566.8833417594909" cy="153.11146190399006" r="6.296492505987047" fill="none"/><circle stroke="hsl(225, 94%, 20%)" stroke-width="1" cx="145.07356810907018" cy="302.3193247189644" r="4.033022855160439" fill="none"/><circle stroke="hsl(225, 94%, 20%)" stroke-width="1" cx="59.35094045161884" cy="513.3102741537742" r="4.8009214824507715" fill="none"/><circle stroke="hsl(225, 94%, 20%)" stroke-width="1" cx="35.96864088001371" cy="548.0883843427822" r="5.199486730433684" fill="none"/><circle stroke="hsl(225, 94%, 20%)" stroke-width="1" cx="141.23385965422398" cy="145.42371553785662" r="4.512761093918474" fill="none"/><circle stroke="hsl(225, 94%, 20%)" stroke-width="1" cx="110.50883810819892" cy="633.6212044882378" r="4.034527213998238" fill="none"/><circle stroke="hsl(225, 94%, 20%)" stroke-width="1" cx="399.6874716705269" cy="795.9998766742779" r="4.000000000000057" fill="none"/><circle stroke="hsl(225, 94%, 20%)" stroke-width="1" cx="767.9572330079575" cy="466.9587535511799" r="4.648169856449339" fill="none"/><circle stroke="hsl(225, 94%, 20%)" stroke-width="1" cx="759.5654213293002" cy="509.9486597657418" r="6.1162288872067165" fill="none"/><circle stroke="hsl(225, 94%, 20%)" stroke-width="1" cx="106.77938168878279" cy="378.6068002115748" r="4.664618099592804" fill="none"/><circle stroke="hsl(225, 94%, 20%)" stroke-width="1" cx="33.49617131730071" cy="474.50465462588636" r="4.832527939482517" fill="none"/><circle stroke="hsl(225, 94%, 20%)" stroke-width="1" cx="740.5948274472555" cy="203.9281674585199" r="4.9976600481321825" fill="none"/><circle stroke="hsl(225, 94%, 20%)" stroke-width="1" cx="75.92577281426577" cy="349.40459236285255" r="5.765121004366115" fill="none"/><circle stroke="hsl(225, 94%, 20%)" stroke-width="1" cx="427.63495909984533" cy="50.08956998175967" r="4.021652477757462" fill="none"/><circle stroke="hsl(225, 94%, 20%)" stroke-width="1" cx="137.5281781478888" cy="696.520729011706" r="4.000000000000057" fill="none"/><circle stroke="hsl(225, 94%, 20%)" stroke-width="1" cx="163.44170404358462" cy="663.3556010685875" r="4.261824717197008" fill="none"/><circle stroke="hsl(225, 94%, 20%)" stroke-width="1" cx="198.82453100867357" cy="144.7482993668409" r="4.335130068198424" fill="none"/><circle stroke="hsl(225, 94%, 20%)" stroke-width="1" cx="159.8503482007211" cy="281.03721279036415" r="4.699911820120956" fill="none"/><circle stroke="hsl(225, 94%, 20%)" stroke-width="1" cx="53.758474702552235" cy="478.36967627658584" r="4.805265748428219" fill="none"/><circle stroke="hsl(225, 94%, 20%)" stroke-width="1" cx="205.03301277811144" cy="114.16110500210095" r="4.480925209334172" fill="none"/><circle stroke="hsl(225, 94%, 20%)" stroke-width="1" cx="635.8599857088584" cy="81.90242512490437" r="4.000000000000057" fill="none"/><circle stroke="hsl(225, 94%, 20%)" stroke-width="1" cx="211.10642407034592" cy="748.044849081994" r="4.000000000000057" fill="none"/><circle stroke="hsl(225, 94%, 20%)" stroke-width="1" cx="260.8553275912485" cy="96.36409938832787" r="4.0083479056297975" fill="none"/><circle stroke="hsl(225, 94%, 20%)" stroke-width="1" cx="675.6643785717924" cy="674.4633862405467" r="4.200071068231717" fill="none"/><circle stroke="hsl(225, 94%, 20%)" stroke-width="1" cx="77.4202057634879" cy="615.6067632295646" r="5.100158418535939" fill="none"/><circle stroke="hsl(225, 94%, 20%)" stroke-width="1" cx="686.0672436379514" cy="241.58746224687602" r="4.090587044711942" fill="none"/><circle stroke="hsl(225, 94%, 20%)" stroke-width="1" cx="791.40864963363" cy="346.85614812625795" r="4.438933958213838" fill="none"/><circle stroke="hsl(225, 94%, 20%)" stroke-width="1" cx="122.00310065643663" cy="401.3129948075715" r="4.631595310488947" fill="none"/><circle stroke="hsl(225, 94%, 20%)" stroke-width="1" cx="380.72084436702124" cy="781.5131900184833" r="4.961835349477754" fill="none"/><circle stroke="hsl(225, 94%, 20%)" stroke-width="1" cx="564.7768572960847" cy="72.070758699951" r="4.135874489014336" fill="none"/><circle stroke="hsl(225, 94%, 20%)" stroke-width="1" cx="152.09107446370925" cy="137.58398555072552" r="4.516034333229843" fill="none"/><circle stroke="hsl(225, 94%, 20%)" stroke-width="1" cx="773.8486272964863" cy="312.28908922754874" r="4.370145730336851" fill="none"/><circle stroke="hsl(225, 94%, 20%)" stroke-width="1" cx="240.68202460288637" cy="760.3523036076843" r="4.351196060744492" fill="none"/><circle stroke="hsl(225, 94%, 20%)" stroke-width="1" cx="285.2484860606251" cy="722.174005854944" r="4.170910028804087" fill="none"/><circle stroke="hsl(225, 94%, 20%)" stroke-width="1" cx="684.0350482395019" cy="675.9349404689153" r="4.0" fill="none"/><circle stroke="hsl(225, 94%, 20%)" stroke-width="1" cx="733.2615052467199" cy="306.97973811749176" r="7.659761121401971" fill="none"/><circle stroke="hsl(225, 94%, 20%)" stroke-width="1" cx="708.0822075761097" cy="213.7599576486547" r="6.054865721554542" fill="none"/><circle stroke="hsl(225, 94%, 20%)" stroke-width="1" cx="653.126952343999" cy="209.17089845351458" r="4.097764385309521" fill="none"/><circle stroke="hsl(225, 94%, 20%)" stroke-width="1" cx="123.25397430627555" cy="597.5136381689335" r="6.0000414279896574" fill="none"/><circle stroke="hsl(225, 94%, 20%)" stroke-width="1" cx="139.91139412800732" cy="156.9158230251026" r="4.419630057031098" fill="none"/><circle stroke="hsl(225, 94%, 20%)" stroke-width="1" cx="275.50644341918445" cy="718.5362685313232" r="4.591056630592529" fill="none"/><circle stroke="hsl(225, 94%, 20%)" stroke-width="1" cx="163.0698042327534" cy="303.04597824899577" r="4.131016185421284" fill="none"/><circle stroke="hsl(225, 94%, 20%)" stroke-width="1" cx="126.6967676909693" cy="586.7253148596515" r="4.32668922659478" fill="none"/><circle stroke="hsl(225, 94%, 20%)" stroke-width="1" cx="169.35875186691806" cy="695.6849922799838" r="4.0905525488192325" fill="none"/><circle stroke="hsl(225, 94%, 20%)" stroke-width="1" cx="586.3552388557632" cy="164.9006062300214" r="4.087248507278105" fill="none"/><circle stroke="hsl(225, 94%, 20%)" stroke-width="1" cx="74.22019045501895" cy="535.9283476425572" r="4.425185158175966" fill="none"/><circle stroke="hsl(225, 94%, 20%)" stroke-width="1" cx="600.8690455808713" cy="741.2735362248732" r="4.0" fill="none"/><circle stroke="hsl(225, 94%, 20%)" stroke-width="1" cx="39.869416938962786" cy="354.44823665194315" r="6.059638490238866" fill="none"/><circle stroke="hsl(225, 94%, 20%)" stroke-width="1" cx="733.3554910113974" cy="584.4860878563752" r="4.902914603972135" fill="none"/><circle stroke="hsl(225, 94%, 20%)" stroke-width="1" cx="773.1631988857393" cy="437.070567804691" r="6.334056528496907" fill="none"/><circle stroke="hsl(225, 94%, 20%)" stroke-width="1" cx="477.14203123439444" cy="48.36225029580271" r="4.523616910360289" fill="none"/><circle stroke="hsl(225, 94%, 20%)" stroke-width="1" cx="4.110713870395557" cy="390.63660703632456" r="4.0" fill="none"/><circle stroke="hsl(225, 94%, 20%)" stroke-width="1" cx="656.869989938449" cy="184.95858940887416" r="4.584023324247312" fill="none"/><circle stroke="hsl(225, 94%, 20%)" stroke-width="1" cx="85.36793234370612" cy="541.5332540512135" r="4.671597173823756" fill="none"/><circle stroke="hsl(225, 94%, 20%)" stroke-width="1" cx="103.28917224711137" cy="386.89714938665526" r="4.330461188078287" fill="none"/><circle stroke="hsl(225, 94%, 20%)" stroke-width="1" cx="626.5961693947786" cy="188.4481717979899" r="4.229499710408845" fill="none"/><circle stroke="hsl(225, 94%, 20%)" stroke-width="1" cx="29.957356990238566" cy="541.0122064019646" r="4.0" fill="none"/><circle stroke="hsl(225, 94%, 20%)" stroke-width="1" cx="92.12131028214594" cy="580.7199834484757" r="4.263401093884562" fill="none"/><circle stroke="hsl(225, 94%, 20%)" stroke-width="1" cx="124.86374179470346" cy="117.97865431710954" r="4.906027196477048" fill="none"/><circle stroke="hsl(225, 94%, 20%)" stroke-width="1" cx="319.53212212383386" cy="134.94543839030723" r="4.385269463250486" fill="none"/><circle stroke="hsl(225, 94%, 20%)" stroke-width="1" cx="226.9094948001897" cy="44.94412128557224" r="5.0" fill="none"/><circle stroke="hsl(225, 94%, 20%)" stroke-width="1" cx="233.9364430415658" cy="83.97485060471394" r="4.9965460269361905" fill="none"/><circle stroke="hsl(225, 94%, 20%)" stroke-width="1" cx="102.33703209612759" cy="239.87268334647513" r="5.562880069156449" fill="none"/><circle stroke="hsl(225, 94%, 20%)" stroke-width="1" cx="340.754034935835" cy="8.45700667281028" r="4.0" fill="none"/><circle stroke="hsl(225, 94%, 20%)" stroke-width="1" cx="305.616046756256" cy="114.18070504235942" r="4.235715915995831" fill="none"/><circle stroke="hsl(225, 94%, 20%)" stroke-width="1" cx="505.92687835794214" cy="42.35702657350902" r="5.123389859668588" fill="none"/><circle stroke="hsl(225, 94%, 20%)" stroke-width="1" cx="238.60362518680682" cy="203.86940524956523" r="4.067433943596312" fill="none"/><circle stroke="hsl(225, 94%, 20%)" stroke-width="1" cx="625.1740722899433" cy="717.2028328504703" r="6.304133197031284" fill="none"/><circle stroke="hsl(225, 94%, 20%)" stroke-width="1" cx="54.951912170517915" cy="205.686292081032" r="4.0" fill="none"/><circle stroke="hsl(225, 94%, 20%)" stroke-width="1" cx="113.73052323821179" cy="209.24941238745294" r="4.232025848695011" fill="none"/><circle stroke="hsl(225, 94%, 20%)" stroke-width="1" cx="520.4883853374098" cy="78.85898891797729" r="4.524623460062468" fill="none"/><circle stroke="hsl(225, 94%, 20%)" stroke-width="1" cx="126.99117637928134" cy="466.53707406575177" r="4.391180690408149" fill="none"/><circle stroke="hsl(225, 94%, 20%)" stroke-width="1" cx="243.63015054412935" cy="708.649429257772" r="5.509850682955298" fill="none"/><circle stroke="hsl(225, 94%, 20%)" stroke-width="1" cx="566.3592863302312" cy="52.79748294158901" r="5.114556555243713" fill="none"/><circle stroke="hsl(225, 94%, 20%)" stroke-width="1" cx="563.8289651605837" cy="40.57675343070497" r="4.390566885938792" fill="none"/><circle stroke="hsl(225, 94%, 20%)" stroke-width="1" cx="766.4254365757811" cy="320.2666981102112" r="4.227541362617178" fill="none"/><circle stroke="hsl(225, 94%, 20%)" stroke-width="1" cx="191.95558799377736" cy="259.5773428787752" r="4.0989999306989375" fill="none"/><circle stroke="hsl(225, 94%, 20%)" stroke-width="1" cx="694.1297820013183" cy="136.34744200016377" r="4.315734881734407" fill="none"/><circle stroke="hsl(225, 94%, 20%)" stroke-width="1" cx="151.5924616398089" cy="169.31689510102782" r="4.3104267141558115" fill="none"/><circle stroke="hsl(225, 94%, 20%)" stroke-width="1" cx="212.24070461237665" cy="666.5003695973858" r="4.5452043996329365" fill="none"/><circle stroke="hsl(225, 94%, 20%)" stroke-width="1" cx="720.8686943681533" cy="625.1827723749678" r="4.4005660790733945" fill="none"/><circle stroke="hsl(225, 94%, 20%)" stroke-width="1" cx="599.4676219432374" cy="84.81486742501681" r="5.786138200720911" fill="none"/><circle stroke="hsl(225, 94%, 20%)" stroke-width="1" cx="769.5388273195812" cy="542.3272816548842" r="4.0" fill="none"/><circle stroke="hsl(225, 94%, 20%)" stroke-width="1" cx="76.94344599375881" cy="544.742747361008" r="4.061455260167662" fill="none"/><circle stroke="hsl(225, 94%, 20%)" stroke-width="1" cx="59.728213632814686" cy="224.2043476007311" r="4.755422219615143" fill="none"/><circle stroke="hsl(225, 94%, 20%)" stroke-width="1" cx="59.590438557587504" cy="213.81372102492523" r="4.081875408130806" fill="none"/><circle stroke="hsl(225, 94%, 20%)" stroke-width="1" cx="793.9971592564093" cy="401.4961610473831" r="4.700717378780626" fill="none"/><circle stroke="hsl(225, 94%, 20%)" stroke-width="1" cx="608.9367245758613" cy="64.782988015956" r="4.179727057103596" fill="none"/><circle stroke="hsl(225, 94%, 20%)" stroke-width="1" cx="117.68170841590086" cy="292.760164877805" r="4.708856333393513" fill="none"/><circle stroke="hsl(225, 94%, 20%)" stroke-width="1" cx="266.4708631667438" cy="718.1115678760607" r="4.4544992475653" fill="none"/><circle stroke="hsl(225, 94%, 20%)" stroke-width="1" cx="666.1682047066365" cy="178.933297841475" r="4.714459145669867" fill="none"/><circle stroke="hsl(225, 94%, 20%)" stroke-width="1" cx="186.45946123910372" cy="703.3833190960013" r="4.035856792977604" fill="none"/><circle stroke="hsl(225, 94%, 20%)" stroke-width="1" cx="666.9088420208902" cy="676.0718566805886" r="4.008795453983453" fill="none"/><circle stroke="hsl(225, 94%, 20%)" stroke-width="1" cx="76.11551605939758" cy="236.0858729012974" r="4.18033731804057" fill="none"/><circle stroke="hsl(225, 94%, 20%)" stroke-width="1" cx="218.88515032196267" cy="751.0304989970273" r="4.332027815167727" fill="none"/><circle stroke="hsl(225, 94%, 20%)" stroke-width="1" cx="430.3191827588176" cy="765.7454677187914" r="4.087513520806999" fill="none"/><circle stroke="hsl(225, 94%, 20%)" stroke-width="1" cx="27.978961368361183" cy="482.2274091494843" r="4.658549083302068" fill="none"/><circle stroke="hsl(225, 94%, 20%)" stroke-width="1" cx="75.82469061476212" cy="307.91651187652974" r="4.484441449042837" fill="none"/><circle stroke="hsl(225, 94%, 20%)" stroke-width="1" cx="136.97586980758263" cy="519.7468452048832" r="4.227603249376671" fill="none"/><circle stroke="hsl(225, 94%, 20%)" stroke-width="1" cx="102.26772927572455" cy="580.1651880063592" r="4.085013320962652" fill="none"/><circle stroke="hsl(225, 94%, 20%)" stroke-width="1" cx="154.52582640533424" cy="111.23810830025388" r="4.231102752558581" fill="none"/><circle stroke="hsl(225, 94%, 20%)" stroke-width="1" cx="370.09448002277196" cy="28.20078015830694" r="4.030717739587425" fill="none"/><circle stroke="hsl(225, 94%, 20%)" stroke-width="1" cx="606.9908464162057" cy="162.55571285056627" r="5.0038144606312756" fill="none"/><circle stroke="hsl(225, 94%, 20%)" stroke-width="1" cx="663.8139795114446" cy="162.45593205820722" r="4.051527730661363" fill="none"/><circle stroke="hsl(225, 94%, 20%)" stroke-width="1" cx="794.1761302848506" cy="425.49859434675705" r="4.2775917427048675" fill="none"/><circle stroke="hsl(225, 94%, 20%)" stroke-width="1" cx="774.601787378579" cy="512.0468691788122" r="4.731507127157098" fill="none"/><circle stroke="hsl(225, 94%, 20%)" stroke-width="1" cx="519.5848537133168" cy="140.20111092931012" r="4.316048735939653" fill="none"/><circle stroke="hsl(225, 94%, 20%)" stroke-width="1" cx="281.67008074618855" cy="152.86839496052622" r="4.1034346599948215" fill="none"/><circle stroke="hsl(225, 94%, 20%)" stroke-width="1" cx="305.4845567049522" cy="143.88316927866572" r="4.689497825216074" fill="none"/><circle stroke="hsl(225, 94%, 20%)" stroke-width="1" cx="148.6384777613016" cy="94.0042726804109" r="4.0" fill="none"/><circle stroke="hsl(225, 94%, 20%)" stroke-width="1" cx="581.779229955992" cy="131.79800232547382" r="4.621442585975142" fill="none"/><circle stroke="hsl(225, 94%, 20%)" stroke-width="1" cx="49.57600621146048" cy="269.3132578365747" r="4.3131946515942925" fill="none"/><circle stroke="hsl(225, 94%, 20%)" stroke-width="1" cx="740.0724391269507" cy="602.8958751336418" r="4.000000000000057" fill="none"/><circle stroke="hsl(225, 94%, 20%)" stroke-width="1" cx="762.903556335559" cy="454.6809729156657" r="4.163102635751102" fill="none"/><circle stroke="hsl(225, 94%, 20%)" stroke-width="1" cx="494.2743229181824" cy="30.847792857311674" r="4.0979848192787465" fill="none"/><circle stroke="hsl(225, 94%, 20%)" stroke-width="1" cx="749.2581943202061" cy="541.942642289726" r="4.172095671822149" fill="none"/><circle stroke="hsl(225, 94%, 20%)" stroke-width="1" cx="90.57172495856383" cy="473.3358207486718" r="4.727917371199451" fill="none"/><circle stroke="hsl(225, 94%, 20%)" stroke-width="1" cx="736.3732159702979" cy="283.4278782135309" r="4.552822515559976" fill="none"/><circle stroke="hsl(225, 94%, 20%)" stroke-width="1" cx="142.80190763388543" cy="664.594295636228" r="4.246262668498986" fill="none"/><circle stroke="hsl(225, 94%, 20%)" stroke-width="1" cx="108.1806147647606" cy="145.81414988059043" r="4.1934613711175235" fill="none"/><circle stroke="hsl(225, 94%, 20%)" stroke-width="1" cx="784.3797519862851" cy="435.32996267988244" r="5.016748273713038" fill="none"/><circle stroke="hsl(225, 94%, 20%)" stroke-width="1" cx="65.77725039301362" cy="477.0983374992334" r="4.6131201741755845" fill="none"/><circle stroke="hsl(225, 94%, 20%)" stroke-width="1" cx="297.12581267145663" cy="41.46701465347462" r="4.016648662528169" fill="none"/><circle stroke="hsl(225, 94%, 20%)" stroke-width="1" cx="373.7639865579342" cy="795.1299426754035" r="4.000000000000057" fill="none"/><circle stroke="hsl(225, 94%, 20%)" stroke-width="1" cx="292.19963946185226" cy="726.672744911242" r="4.109016704208308" fill="none"/><circle stroke="hsl(225, 94%, 20%)" stroke-width="1" cx="46.995027094017814" cy="484.596034798605" r="4.387762261869069" fill="none"/><circle stroke="hsl(225, 94%, 20%)" stroke-width="1" cx="307.682442087461" cy="14.911090134933886" r="4.0" fill="none"/><circle stroke="hsl(225, 94%, 20%)" stroke-width="1" cx="164.39603319707632" cy="717.0422224668614" r="4.191525660680149" fill="none"/><circle stroke="hsl(225, 94%, 20%)" stroke-width="1" cx="340.5238046767069" cy="148.94904463462902" r="4.380309863752972" fill="none"/><circle stroke="hsl(225, 94%, 20%)" stroke-width="1" cx="781.6332008206123" cy="342.10267681995776" r="4.401218083998497" fill="none"/><circle stroke="hsl(225, 94%, 20%)" stroke-width="1" cx="411.6842021242686" cy="113.2379393631033" r="4.114101373388316" fill="none"/><circle stroke="hsl(225, 94%, 20%)" stroke-width="1" cx="529.3159097156067" cy="773.2323612636303" r="5.0" fill="none"/><circle stroke="hsl(225, 94%, 20%)" stroke-width="1" cx="328.4595743464813" cy="22.72295657260912" r="4.351195439754031" fill="none"/><circle stroke="hsl(225, 94%, 20%)" stroke-width="1" cx="780.1178615005635" cy="362.12637635189446" r="4.156767043758064" fill="none"/><circle stroke="hsl(225, 94%, 20%)" stroke-width="1" cx="759.3978536847951" cy="540.8161310601973" r="4.022203838017921" fill="none"/><circle stroke="hsl(225, 94%, 20%)" stroke-width="1" cx="528.4502207786297" cy="25.411504738971928" r="4.000000000000057" fill="none"/></svg>
