<svg xmlns="http://www.w3.org/2000/svg" width="780" height="780"><rect x="0" y="0" width="780" height="780" fill="grey"/><rect x="10" y="10" width="60" height="60" fill="black"/><rect x="10" y="80" width="60" height="60" fill="black"/><rect x="10" y="150" width="60" height="60" fill="black"/><rect x="10" y="220" width="60" height="60" fill="black"/><rect x="10" y="290" width="60" height="60" fill="black"/><rect x="10" y="360" width="60" height="60" fill="black"/><rect x="10" y="430" width="60" height="60" fill="black"/><rect x="10" y="500" width="60" height="60" fill="black"/><rect x="10" y="570" width="60" height="60" fill="black"/><rect x="10" y="640" width="60" height="60" fill="black"/><rect x="10" y="710" width="60" height="60" fill="black"/><rect x="80" y="10" width="60" height="60" fill="black"/><rect x="80" y="80" width="60" height="60" fill="black"/><rect x="80" y="150" width="60" height="60" fill="black"/><rect x="80" y="220" width="60" height="60" fill="black"/><rect x="80" y="290" width="60" height="60" fill="black"/><rect x="80" y="360" width="60" height="60" fill="black"/><rect x="80" y="430" width="60" height="60" fill="black"/><rect x="80" y="500" width="60" height="60" fill="black"/><rect x="80" y="570" width="60" height="60" fill="black"/><rect x="80" y="640" width="60" height="60" fill="black"/><rect x="80" y="710" width="60" height="60" fill="black"/><rect x="150" y="10" width="60" height="60" fill="black"/><rect x="150" y="80" width="60" height="60" fill="black"/><rect x="150" y="150" width="60" height="60" fill="black"/><rect x="150" y="220" width="60" height="60" fill="black"/><rect x="150" y="290" width="60" height="60" fill="black"/><rect x="150" y="360" width="60" height="60" fill="black"/><rect x="150" y="430" width="60" height="60" fill="black"/><rect x="150" y="500" width="60" height="60" fill="black"/><rect x="150" y="570" width="60" height="60" fill="black"/><rect x="150" y="640" width="60" height="60" fill="black"/><rect x="150" y="710" width="60" height="60" fill="black"/><rect x="220" y="10" width="60" height="60" fill="black"/><rect x="220" y="80" width="60" height="60" fill="black"/><rect x="220" y="150" width="60" height="60" fill="black"/><rect x="220" y="220" width="60" height="60" fill="black"/><rect x="220" y="290" width="60" height="60" fill="black"/><rect x="220" y="360" width="60" height="60" fill="black"/><rect x="220" y="430" width="60" height="60" fill="black"/><rect x="220" y="500" width="60" height="60" fill="black"/><rect x="220" y="570" width="60" height="60" fill="black"/><rect x="220" y="640" width="60" height="60" fill="black"/><rect x="220" y="710" width="60" height="60" fill="black"/><rect x="290" y="10" width="60" height="60" fill="black"/><rect x="290" y="80" width="60" height="60" fill="black"/><rect x="290" y="150" width="60" height="60" fill="black"/><rect x="290" y="220" width="60" height="60" fill="black"/><rect x="290" y="290" width="60" height="60" fill="black"/><rect x="290" y="360" width="60" height="60" fill="black"/><rect x="290" y="430" width="60" height="60" fill="black"/><rect x="290" y="500" width="60" height="60" fill="black"/><rect x="290" y="570" width="60" height="60" fill="black"/><rect x="290" y="640" width="60" height="60" fill="black"/><rect x="290" y="710" width="60" height="60" fill="black"/><rect x="360" y="10" width="60" height="60" fill="black"/><rect x="360" y="80" width="60" height="60" fill="black"/><rect x="360" y="150" width="60" height="60" fill="black"/><rect x="360" y="220" width="60" height="60" fill="black"/><rect x="360" y="290" width="60" height="60" fill="black"/><rect x="360" y="360" width="60" height="60" fill="black"/><rect x="360" y="430" width="60" height="60" fill="black"/><rect x="360" y="500" width="60" height="60" fill="black"/><rect x="360" y="570" width="60" height="60" fill="black"/><rect x="360" y="640" width="60" height="60" fill="black"/><rect x="360" y="710" width="60" height="60" fill="black"/><rect x="430" y="10" width="60" height="60" fill="black"/><rect x="430" y="80" width="60" height="60" fill="black"/><rect x="430" y="150" width="60" height="60" fill="black"/><rect x="430" y="220" width="60" height="60" fill="black"/><rect x="430" y="290" width="60" height="60" fill="black"/><rect x="430" y="360" width="60" height="60" fill="black"/><rect x="430" y="430" width="60" height="60" fill="black"/><rect x="430" y="500" width="60" height="60" fill="black"/><rect x="430" y="570" width="60" height="60" fill="black"/><rect x="430" y="640" width="60" height="60" fill="black"/><rect x="430" y="710" width="60" height="60" fill="black"/><rect x="500" y="10" width="60" height="60" fill="black"/><rect x="500" y="80" width="60" height="60" fill="black"/><rect x="500" y="150" width="60" height="60" fill="black"/><rect x="500" y="220" width="60" height="60" fill="black"/><rect x="500" y="290" width="60" height="60" fill="black"/><rect x="500" y="360" width="60" height="60" fill="black"/><rect x="500" y="430" width="60" height="60" fill="black"/><rect x="500" y="500" width="60" height="60" fill="black"/><rect x="500" y="570" width="60" height="60" fill="black"/><rect x="500" y="640" width="60" height="60" fill="black"/><rect x="500" y="710" width="60" height="60" fill="black"/><rect x="570" y="10" width="60" height="60" fill="black"/><rect x="570" y="80" width="60" height="60" fill="black"/><rect x="570" y="150" width="60" height="60" fill="black"/><rect x="570" y="220" width="60" height="60" fill="black"/><rect x="570" y="290" width="60" height="60" fill="black"/><rect x="570" y="360" width="60" height="60" fill="black"/><rect x="570" y="430" width="60" height="60" fill="black"/><rect x="570" y="500" width="60" height="60" fill="black"/><rect x="570" y="570" width="60" height="60" fill="black"/><rect x="570" y="640" width="60" height="60" fill="black"/><rect x="570" y="710" width="60" height="60" fill="black"/><rect x="640" y="10" width="60" height="60" fill="black"/><rect x="640" y="80" width="60" height="60" fill="black"/><rect x="640" y="150" width="60" height="60" fill="black"/><rect x="640" y="220" width="60" height="60" fill="black"/><rect x="640" y="290" width="60" height="60" fill="black"/><rect x="640" y="360" width="60" height="60" fill="black"/><rect x="640" y="430" width="60" height="60" fill="black"/><rect x="640" y="500" width="60" height="60" fill="black"/><rect x="640" y="570" width="60" height="60" fill="black"/><rect x="640" y="640" width="60" height="60" fill="black"/><rect x="640" y="710" width="60" height="60" fill="black"/><rect x="710" y="10" width="60" height="60" fill="black"/><rect x="710" y="80" width="60" height="60" fill="black"/><rect x="710" y="150" width="60" height="60" fill="black"/><rect x="710" y="220" width="60" height="60" fill="black"/><rect x="710" y="290" width="60" height="60" fill="black"/><rect x="710" y="360" width="60" height="60" fill="black"/><rect x="710" y="430" width="60" height="60" fill="black"/><rect x="710" y="500" width="60" height="60" fill="black"/><rect x="710" y="570" width="60" height="60" fill="black"/><rect x="710" y="640" width="60" height="60" fill="black"/><rect x="710" y="710" width="60" height="60" fill="black"/><circle cx="5" cy="5" r="7.07" fill="white"/><circle cx="5" cy="75" r="7.07" fill="white"/><circle cx="5" cy="145" r="7.07" fill="white"/><circle cx="5" cy="215" r="7.07" fill="white"/><circle cx="5" cy="285" r="7.07" fill="white"/><circle cx="5" cy="355" r="7.07" fill="white"/><circle cx="5" cy="425" r="7.07" fill="white"/><circle cx="5" cy="495" r="7.07" fill="white"/><circle cx="5" cy="565" r="7.07" fill="white"/><circle cx="5" cy="635" r="7.07" fill="white"/><circle cx="5" cy="705" r="7.07" fill="white"/><circle cx="5" cy="775" r="7.07" fill="white"/><circle cx="75" cy="5" r="7.07" fill="white"/><circle cx="75" cy="75" r="7.07" fill="white"/><circle cx="75" cy="145" r="7.07" fill="white"/><circle cx="75" cy="215" r="7.07" fill="white"/><circle cx="75" cy="285" r="7.07" fill="white"/><circle cx="75" cy="355" r="7.07" fill="white"/><circle cx="75" cy="425" r="7.07" fill="white"/><circle cx="75" cy="495" r="7.07" fill="white"/><circle cx="75" cy="565" r="7.07" fill="white"/><circle cx="75" cy="635" r="7.07" fill="white"/><circle cx="75" cy="705" r="7.07" fill="white"/><circle cx="75" cy="775" r="7.07" fill="white"/><circle cx="145" cy="5" r="7.07" fill="white"/><circle cx="145" cy="75" r="7.07" fill="white"/><circle cx="145" cy="145" r="7.07" fill="white"/><circle cx="145" cy="215" r="7.07" fill="white"/><circle cx="145" cy="285" r="7.07" fill="white"/><circle cx="145" cy="355" r="7.07" fill="white"/><circle cx="145" cy="425" r="7.07" fill="white"/><circle cx="145" cy="495" r="7.07" fill="white"/><circle cx="145" cy="565" r="7.07" fill="white"/><circle cx="145" cy="635" r="7.07" fill="white"/><circle cx="145" cy="705" r="7.07" fill="white"/><circle cx="145" cy="775" r="7.07" fill="white"/><circle cx="215" cy="5" r="7.07" fill="white"/><circle cx="215" cy="75" r="7.07" fill="white"/><circle cx="215" cy="145" r="7.07" fill="white"/><circle cx="215" cy="215" r="7.07" fill="white"/><circle cx="215" cy="285" r="7.07" fill="white"/><circle cx="215" cy="355" r="7.07" fill="white"/><circle cx="215" cy="425" r="7.07" fill="white"/><circle cx="215" cy="495" r="7.07" fill="white"/><circle cx="215" cy="565" r="7.07" fill="white"/><circle cx="215" cy="635" r="7.07" fill="white"/><circle cx="215" cy="705" r="7.07" fill="white"/><circle cx="215" cy="775" r="7.07" fill="white"/><circle cx="285" cy="5" r="7.07" fill="white"/><circle cx="285" cy="75" r="7.07" fill="white"/><circle cx="285" cy="145" r="7.07" fill="white"/><circle cx="285" cy="215" r="7.07" fill="white"/><circle cx="285" cy="285" r="7.07" fill="white"/><circle cx="285" cy="355" r="7.07" fill="white"/><circle cx="285" cy="425" r="7.07" fill="white"/><circle cx="285" cy="495" r="7.07" fill="white"/><circle cx="285" cy="565" r="7.07" fill="white"/><circle cx="285" cy="635" r="7.07" fill="white"/><circle cx="285" cy="705" r="7.07" fill="white"/><circle cx="285" cy="775" r="7.07" fill="white"/><circle cx="355" cy="5" r="7.07" fill="white"/><circle cx="355" cy="75" r="7.07" fill="white"/><circle cx="355" cy="145" r="7.07" fill="white"/><circle cx="355" cy="215" r="7.07" fill="white"/><circle cx="355" cy="285" r="7.07" fill="white"/><circle cx="355" cy="355" r="7.07" fill="white"/><circle cx="355" cy="425" r="7.07" fill="white"/><circle cx="355" cy="495" r="7.07" fill="white"/><circle cx="355" cy="565" r="7.07" fill="white"/><circle cx="355" cy="635" r="7.07" fill="white"/><circle cx="355" cy="705" r="7.07" fill="white"/><circle cx="355" cy="775" r="7.07" fill="white"/><circle cx="425" cy="5" r="7.07" fill="white"/><circle cx="425" cy="75" r="7.07" fill="white"/><circle cx="425" cy="145" r="7.07" fill="white"/><circle cx="425" cy="215" r="7.07" fill="white"/><circle cx="425" cy="285" r="7.07" fill="white"/><circle cx="425" cy="355" r="7.07" fill="white"/><circle cx="425" cy="425" r="7.07" fill="white"/><circle cx="425" cy="495" r="7.07" fill="white"/><circle cx="425" cy="565" r="7.07" fill="white"/><circle cx="425" cy="635" r="7.07" fill="white"/><circle cx="425" cy="705" r="7.07" fill="white"/><circle cx="425" cy="775" r="7.07" fill="white"/><circle cx="495" cy="5" r="7.07" fill="white"/><circle cx="495" cy="75" r="7.07" fill="white"/><circle cx="495" cy="145" r="7.07" fill="white"/><circle cx="495" cy="215" r="7.07" fill="white"/><circle cx="495" cy="285" r="7.07" fill="white"/><circle cx="495" cy="355" r="7.07" fill="white"/><circle cx="495" cy="425" r="7.07" fill="white"/><circle cx="495" cy="495" r="7.07" fill="white"/><circle cx="495" cy="565" r="7.07" fill="white"/><circle cx="495" cy="635" r="7.07" fill="white"/><circle cx="495" cy="705" r="7.07" fill="white"/><circle cx="495" cy="775" r="7.07" fill="white"/><circle cx="565" cy="5" r="7.07" fill="white"/><circle cx="565" cy="75" r="7.07" fill="white"/><circle cx="565" cy="145" r="7.07" fill="white"/><circle cx="565" cy="215" r="7.07" fill="white"/><circle cx="565" cy="285" r="7.07" fill="white"/><circle cx="565" cy="355" r="7.07" fill="white"/><circle cx="565" cy="425" r="7.07" fill="white"/><circle cx="565" cy="495" r="7.07" fill="white"/><circle cx="565" cy="565" r="7.07" fill="white"/><circle cx="565" cy="635" r="7.07" fill="white"/><circle cx="565" cy="705" r="7.07" fill="white"/><circle cx="565" cy="775" r="7.07" fill="white"/><circle cx="635" cy="5" r="7.07" fill="white"/><circle cx="635" cy="75" r="7.07" fill="white"/><circle cx="635" cy="145" r="7.07" fill="white"/><circle cx="635" cy="215" r="7.07" fill="white"/><circle cx="635" cy="285" r="7.07" fill="white"/><circle cx="635" cy="355" r="7.07" fill="white"/><circle cx="635" cy="425" r="7.07" fill="white"/><circle cx="635" cy="495" r="7.07" fill="white"/><circle cx="635" cy="565" r="7.07" fill="white"/><circle cx="635" cy="635" r="7.07" fill="white"/><circle cx="635" cy="705" r="7.07" fill="white"/><circle cx="635" cy="775" r="7.07" fill="white"/><circle cx="705" cy="5" r="7.07" fill="white"/><circle cx="705" cy="75" r="7.07" fill="white"/><circle cx="705" cy="145" r="7.07" fill="white"/><circle cx="705" cy="215" r="7.07" fill="white"/><circle cx="705" cy="285" r="7.07" fill="white"/><circle cx="705" cy="355" r="7.07" fill="white"/><circle cx="705" cy="425" r="7.07" fill="white"/><circle cx="705" cy="495" r="7.07" fill="white"/><circle cx="705" cy="565" r="7.07" fill="white"/><circle cx="705" cy="635" r="7.07" fill="white"/><circle cx="705" cy="705" r="7.07" fill="white"/><circle cx="705" cy="775" r="7.07" fill="white"/><circle cx="775" cy="5" r="7.07" fill="white"/><circle cx="775" cy="75" r="7.07" fill="white"/><circle cx="775" cy="145" r="7.07" fill="white"/><circle cx="775" cy="215" r="7.07" fill="white"/><circle cx="775" cy="285" r="7.07" fill="white"/><circle cx="775" cy="355" r="7.07" fill="white"/><circle cx="775" cy="425" r="7.07" fill="white"/><circle cx="775" cy="495" r="7.07" fill="white"/><circle cx="775" cy="565" r="7.07" fill="white"/><circle cx="775" cy="635" r="7.07" fill="white"/><circle cx="775" cy="705" r="7.07" fill="white"/><circle cx="775" cy="775" r="7.07" fill="white"/></svg>
