<svg xmlns="http://www.w3.org/2000/svg" width="800" height="800"><rect x="0" y="0" width="800" height="5" fill="red"/><rect x="0" y="5" width="800" height="5" fill="green"/><rect x="0" y="10" width="800" height="5" fill="blue"/><rect x="0" y="15" width="800" height="5" fill="red"/><rect x="0" y="20" width="800" height="5" fill="green"/><rect x="0" y="25" width="800" height="5" fill="blue"/><rect x="0" y="30" width="800" height="5" fill="red"/><rect x="0" y="35" width="800" height="5" fill="green"/><rect x="0" y="40" width="800" height="5" fill="blue"/><rect x="0" y="45" width="800" height="5" fill="red"/><rect x="0" y="50" width="800" height="5" fill="green"/><rect x="0" y="55" width="800" height="5" fill="blue"/><rect x="0" y="60" width="800" height="5" fill="red"/><rect x="0" y="65" width="800" height="5" fill="green"/><rect x="0" y="70" width="800" height="5" fill="blue"/><rect x="0" y="75" width="800" height="5" fill="red"/><rect x="0" y="80" width="800" height="5" fill="green"/><rect x="0" y="85" width="800" height="5" fill="blue"/><rect x="0" y="90" width="800" height="5" fill="red"/><rect x="0" y="95" width="800" height="5" fill="green"/><rect x="0" y="100" width="800" height="5" fill="blue"/><rect x="0" y="105" width="800" height="5" fill="red"/><rect x="0" y="110" width="800" height="5" fill="green"/><rect x="0" y="115" width="800" height="5" fill="blue"/><rect x="0" y="120" width="800" height="5" fill="red"/><rect x="0" y="125" width="800" height="5" fill="green"/><rect x="0" y="130" width="800" height="5" fill="blue"/><rect x="0" y="135" width="800" height="5" fill="red"/><rect x="0" y="140" width="800" height="5" fill="green"/><rect x="0" y="145" width="800" height="5" fill="blue"/><rect x="0" y="150" width="800" height="5" fill="red"/><rect x="0" y="155" width="800" height="5" fill="green"/><rect x="0" y="160" width="800" height="5" fill="blue"/><rect x="0" y="165" width="800" height="5" fill="red"/><rect x="0" y="170" width="800" height="5" fill="green"/><rect x="0" y="175" width="800" height="5" fill="blue"/><rect x="0" y="180" width="800" height="5" fill="red"/><rect x="0" y="185" width="800" height="5" fill="green"/><rect x="0" y="190" width="800" height="5" fill="blue"/><rect x="0" y="195" width="800" height="5" fill="red"/><rect x="0" y="200" width="800" height="5" fill="green"/><rect x="0" y="205" width="800" height="5" fill="blue"/><rect x="0" y="210" width="800" height="5" fill="red"/><rect x="0" y="215" width="800" height="5" fill="green"/><rect x="0" y="220" width="800" height="5" fill="blue"/><rect x="0" y="225" width="800" height="5" fill="red"/><rect x="0" y="230" width="800" height="5" fill="green"/><rect x="0" y="235" width="800" height="5" fill="blue"/><rect x="0" y="240" width="800" height="5" fill="red"/><rect x="0" y="245" width="800" height="5" fill="green"/><rect x="0" y="250" width="800" height="5" fill="blue"/><rect x="0" y="255" width="800" height="5" fill="red"/><rect x="0" y="260" width="800" height="5" fill="green"/><rect x="0" y="265" width="800" height="5" fill="blue"/><rect x="0" y="270" width="800" height="5" fill="red"/><rect x="0" y="275" width="800" height="5" fill="green"/><rect x="0" y="280" width="800" height="5" fill="blue"/><rect x="0" y="285" width="800" height="5" fill="red"/><rect x="0" y="290" width="800" height="5" fill="green"/><rect x="0" y="295" width="800" height="5" fill="blue"/><rect x="0" y="300" width="800" height="5" fill="red"/><rect x="0" y="305" width="800" height="5" fill="green"/><rect x="0" y="310" width="800" height="5" fill="blue"/><rect x="0" y="315" width="800" height="5" fill="red"/><rect x="0" y="320" width="800" height="5" fill="green"/><rect x="0" y="325" width="800" height="5" fill="blue"/><rect x="0" y="330" width="800" height="5" fill="red"/><rect x="0" y="335" width="800" height="5" fill="green"/><rect x="0" y="340" width="800" height="5" fill="blue"/><rect x="0" y="345" width="800" height="5" fill="red"/><rect x="0" y="350" width="800" height="5" fill="green"/><rect x="0" y="355" width="800" height="5" fill="blue"/><rect x="0" y="360" width="800" height="5" fill="red"/><rect x="0" y="365" width="800" height="5" fill="green"/><rect x="0" y="370" width="800" height="5" fill="blue"/><rect x="0" y="375" width="800" height="5" fill="red"/><rect x="0" y="380" width="800" height="5" fill="green"/><rect x="0" y="385" width="800" height="5" fill="blue"/><rect x="0" y="390" width="800" height="5" fill="red"/><rect x="0" y="395" width="800" height="5" fill="green"/><rect x="0" y="400" width="800" height="5" fill="blue"/><rect x="0" y="405" width="800" height="5" fill="red"/><rect x="0" y="410" width="800" height="5" fill="green"/><rect x="0" y="415" width="800" height="5" fill="blue"/><rect x="0" y="420" width="800" height="5" fill="red"/><rect x="0" y="425" width="800" height="5" fill="green"/><rect x="0" y="430" width="800" height="5" fill="blue"/><rect x="0" y="435" width="800" height="5" fill="red"/><rect x="0" y="440" width="800" height="5" fill="green"/><rect x="0" y="445" width="800" height="5" fill="blue"/><rect x="0" y="450" width="800" height="5" fill="red"/><rect x="0" y="455" width="800" height="5" fill="green"/><rect x="0" y="460" width="800" height="5" fill="blue"/><rect x="0" y="465" width="800" height="5" fill="red"/><rect x="0" y="470" width="800" height="5" fill="green"/><rect x="0" y="475" width="800" height="5" fill="blue"/><rect x="0" y="480" width="800" height="5" fill="red"/><rect x="0" y="485" width="800" height="5" fill="green"/><rect x="0" y="490" width="800" height="5" fill="blue"/><rect x="0" y="495" width="800" height="5" fill="red"/><rect x="0" y="500" width="800" height="5" fill="green"/><rect x="0" y="505" width="800" height="5" fill="blue"/><rect x="0" y="510" width="800" height="5" fill="red"/><rect x="0" y="515" width="800" height="5" fill="green"/><rect x="0" y="520" width="800" height="5" fill="blue"/><rect x="0" y="525" width="800" height="5" fill="red"/><rect x="0" y="530" width="800" height="5" fill="green"/><rect x="0" y="535" width="800" height="5" fill="blue"/><rect x="0" y="540" width="800" height="5" fill="red"/><rect x="0" y="545" width="800" height="5" fill="green"/><rect x="0" y="550" width="800" height="5" fill="blue"/><rect x="0" y="555" width="800" height="5" fill="red"/><rect x="0" y="560" width="800" height="5" fill="green"/><rect x="0" y="565" width="800" height="5" fill="blue"/><rect x="0" y="570" width="800" height="5" fill="red"/><rect x="0" y="575" width="800" height="5" fill="green"/><rect x="0" y="580" width="800" height="5" fill="blue"/><rect x="0" y="585" width="800" height="5" fill="red"/><rect x="0" y="590" width="800" height="5" fill="green"/><rect x="0" y="595" width="800" height="5" fill="blue"/><rect x="0" y="600" width="800" height="5" fill="red"/><rect x="0" y="605" width="800" height="5" fill="green"/><rect x="0" y="610" width="800" height="5" fill="blue"/><rect x="0" y="615" width="800" height="5" fill="red"/><rect x="0" y="620" width="800" height="5" fill="green"/><rect x="0" y="625" width="800" height="5" fill="blue"/><rect x="0" y="630" width="800" height="5" fill="red"/><rect x="0" y="635" width="800" height="5" fill="green"/><rect x="0" y="640" width="800" height="5" fill="blue"/><rect x="0" y="645" width="800" height="5" fill="red"/><rect x="0" y="650" width="800" height="5" fill="green"/><rect x="0" y="655" width="800" height="5" fill="blue"/><rect x="0" y="660" width="800" height="5" fill="red"/><rect x="0" y="665" width="800" height="5" fill="green"/><rect x="0" y="670" width="800" height="5" fill="blue"/><rect x="0" y="675" width="800" height="5" fill="red"/><rect x="0" y="680" width="800" height="5" fill="green"/><rect x="0" y="685" width="800" height="5" fill="blue"/><rect x="0" y="690" width="800" height="5" fill="red"/><rect x="0" y="695" width="800" height="5" fill="green"/><rect x="0" y="700" width="800" height="5" fill="blue"/><rect x="0" y="705" width="800" height="5" fill="red"/><rect x="0" y="710" width="800" height="5" fill="green"/><rect x="0" y="715" width="800" height="5" fill="blue"/><rect x="0" y="720" width="800" height="5" fill="red"/><rect x="0" y="725" width="800" height="5" fill="green"/><rect x="0" y="730" width="800" height="5" fill="blue"/><rect x="0" y="735" width="800" height="5" fill="red"/><rect x="0" y="740" width="800" height="5" fill="green"/><rect x="0" y="745" width="800" height="5" fill="blue"/><rect x="0" y="750" width="800" height="5" fill="red"/><rect x="0" y="755" width="800" height="5" fill="green"/><rect x="0" y="760" width="800" height="5" fill="blue"/><rect x="0" y="765" width="800" height="5" fill="red"/><rect x="0" y="770" width="800" height="5" fill="green"/><rect x="0" y="775" width="800" height="5" fill="blue"/><rect x="0" y="780" width="800" height="5" fill="red"/><rect x="0" y="785" width="800" height="5" fill="green"/><rect x="0" y="790" width="800" height="5" fill="blue"/><rect x="0" y="795" width="800" height="5" fill="red"/><circle cx="120" cy="120" r="60" fill="#cd7f32"/><rect x="60" y="65" width="120" height="5" fill="green"/><rect x="60" y="80" width="120" height="5" fill="green"/><rect x="60" y="95" width="120" height="5" fill="green"/><rect x="60" y="110" width="120" height="5" fill="green"/><rect x="60" y="125" width="120" height="5" fill="green"/><rect x="60" y="140" width="120" height="5" fill="green"/><rect x="60" y="155" width="120" height="5" fill="green"/><rect x="60" y="170" width="120" height="5" fill="green"/><circle cx="120" cy="300" r="60" fill="#cd7f32"/><rect x="60" y="245" width="120" height="5" fill="green"/><rect x="60" y="260" width="120" height="5" fill="green"/><rect x="60" y="275" width="120" height="5" fill="green"/><rect x="60" y="290" width="120" height="5" fill="green"/><rect x="60" y="305" width="120" height="5" fill="green"/><rect x="60" y="320" width="120" height="5" fill="green"/><rect x="60" y="335" width="120" height="5" fill="green"/><rect x="60" y="350" width="120" height="5" fill="green"/><circle cx="120" cy="480" r="60" fill="#cd7f32"/><rect x="60" y="425" width="120" height="5" fill="green"/><rect x="60" y="440" width="120" height="5" fill="green"/><rect x="60" y="455" width="120" height="5" fill="green"/><rect x="60" y="470" width="120" height="5" fill="green"/><rect x="60" y="485" width="120" height="5" fill="green"/><rect x="60" y="500" width="120" height="5" fill="green"/><rect x="60" y="515" width="120" height="5" fill="green"/><rect x="60" y="530" width="120" height="5" fill="green"/><circle cx="120" cy="660" r="60" fill="#cd7f32"/><rect x="60" y="600" width="120" height="5" fill="red"/><rect x="60" y="615" width="120" height="5" fill="red"/><rect x="60" y="630" width="120" height="5" fill="red"/><rect x="60" y="645" width="120" height="5" fill="red"/><rect x="60" y="660" width="120" height="5" fill="red"/><rect x="60" y="675" width="120" height="5" fill="red"/><rect x="60" y="690" width="120" height="5" fill="red"/><rect x="60" y="705" width="120" height="5" fill="red"/><circle cx="300" cy="120" r="60" fill="#cd7f32"/><rect x="240" y="65" width="120" height="5" fill="green"/><rect x="240" y="80" width="120" height="5" fill="green"/><rect x="240" y="95" width="120" height="5" fill="green"/><rect x="240" y="110" width="120" height="5" fill="green"/><rect x="240" y="125" width="120" height="5" fill="green"/><rect x="240" y="140" width="120" height="5" fill="green"/><rect x="240" y="155" width="120" height="5" fill="green"/><rect x="240" y="170" width="120" height="5" fill="green"/><circle cx="300" cy="300" r="60" fill="#cd7f32"/><rect x="240" y="240" width="120" height="5" fill="red"/><rect x="240" y="255" width="120" height="5" fill="red"/><rect x="240" y="270" width="120" height="5" fill="red"/><rect x="240" y="285" width="120" height="5" fill="red"/><rect x="240" y="300" width="120" height="5" fill="red"/><rect x="240" y="315" width="120" height="5" fill="red"/><rect x="240" y="330" width="120" height="5" fill="red"/><rect x="240" y="345" width="120" height="5" fill="red"/><circle cx="300" cy="480" r="60" fill="#cd7f32"/><rect x="240" y="430" width="120" height="5" fill="blue"/><rect x="240" y="445" width="120" height="5" fill="blue"/><rect x="240" y="460" width="120" height="5" fill="blue"/><rect x="240" y="475" width="120" height="5" fill="blue"/><rect x="240" y="490" width="120" height="5" fill="blue"/><rect x="240" y="505" width="120" height="5" fill="blue"/><rect x="240" y="520" width="120" height="5" fill="blue"/><rect x="240" y="535" width="120" height="5" fill="blue"/><circle cx="300" cy="660" r="60" fill="#cd7f32"/><rect x="240" y="610" width="120" height="5" fill="blue"/><rect x="240" y="625" width="120" height="5" fill="blue"/><rect x="240" y="640" width="120" height="5" fill="blue"/><rect x="240" y="655" width="120" height="5" fill="blue"/><rect x="240" y="670" width="120" height="5" fill="blue"/><rect x="240" y="685" width="120" height="5" fill="blue"/><rect x="240" y="700" width="120" height="5" fill="blue"/><rect x="240" y="715" width="120" height="5" fill="blue"/><circle cx="480" cy="120" r="60" fill="#cd7f32"/><rect x="420" y="70" width="120" height="5" fill="blue"/><rect x="420" y="85" width="120" height="5" fill="blue"/><rect x="420" y="100" width="120" height="5" fill="blue"/><rect x="420" y="115" width="120" height="5" fill="blue"/><rect x="420" y="130" width="120" height="5" fill="blue"/><rect x="420" y="145" width="120" height="5" fill="blue"/><rect x="420" y="160" width="120" height="5" fill="blue"/><rect x="420" y="175" width="120" height="5" fill="blue"/><circle cx="480" cy="300" r="60" fill="#cd7f32"/><rect x="420" y="245" width="120" height="5" fill="green"/><rect x="420" y="260" width="120" height="5" fill="green"/><rect x="420" y="275" width="120" height="5" fill="green"/><rect x="420" y="290" width="120" height="5" fill="green"/><rect x="420" y="305" width="120" height="5" fill="green"/><rect x="420" y="320" width="120" height="5" fill="green"/><rect x="420" y="335" width="120" height="5" fill="green"/><rect x="420" y="350" width="120" height="5" fill="green"/><circle cx="480" cy="480" r="60" fill="#cd7f32"/><rect x="420" y="420" width="120" height="5" fill="red"/><rect x="420" y="435" width="120" height="5" fill="red"/><rect x="420" y="450" width="120" height="5" fill="red"/><rect x="420" y="465" width="120" height="5" fill="red"/><rect x="420" y="480" width="120" height="5" fill="red"/><rect x="420" y="495" width="120" height="5" fill="red"/><rect x="420" y="510" width="120" height="5" fill="red"/><rect x="420" y="525" width="120" height="5" fill="red"/><circle cx="480" cy="660" r="60" fill="#cd7f32"/><rect x="420" y="600" width="120" height="5" fill="red"/><rect x="420" y="615" width="120" height="5" fill="red"/><rect x="420" y="630" width="120" height="5" fill="red"/><rect x="420" y="645" width="120" height="5" fill="red"/><rect x="420" y="660" width="120" height="5" fill="red"/><rect x="420" y="675" width="120" height="5" fill="red"/><rect x="420" y="690" width="120" height="5" fill="red"/><rect x="420" y="705" width="120" height="5" fill="red"/><circle cx="660" cy="120" r="60" fill="#cd7f32"/><rect x="600" y="70" width="120" height="5" fill="blue"/><rect x="600" y="85" width="120" height="5" fill="blue"/><rect x="600" y="100" width="120" height="5" fill="blue"/><rect x="600" y="115" width="120" height="5" fill="blue"/><rect x="600" y="130" width="120" height="5" fill="blue"/><rect x="600" y="145" width="120" height="5" fill="blue"/><rect x="600" y="160" width="120" height="5" fill="blue"/><rect x="600" y="175" width="120" height="5" fill="blue"/><circle cx="660" cy="300" r="60" fill="#cd7f32"/><rect x="600" y="250" width="120" height="5" fill="blue"/><rect x="600" y="265" width="120" height="5" fill="blue"/><rect x="600" y="280" width="120" height="5" fill="blue"/><rect x="600" y="295" width="120" height="5" fill="blue"/><rect x="600" y="310" width="120" height="5" fill="blue"/><rect x="600" y="325" width="120" height="5" fill="blue"/><rect x="600" y="340" width="120" height="5" fill="blue"/><rect x="600" y="355" width="120" height="5" fill="blue"/><circle cx="660" cy="480" r="60" fill="#cd7f32"/><rect x="600" y="420" width="120" height="5" fill="red"/><rect x="600" y="435" width="120" height="5" fill="red"/><rect x="600" y="450" width="120" height="5" fill="red"/><rect x="600" y="465" width="120" height="5" fill="red"/><rect x="600" y="480" width="120" height="5" fill="red"/><rect x="600" y="495" width="120" height="5" fill="red"/><rect x="600" y="510" width="120" height="5" fill="red"/><rect x="600" y="525" width="120" height="5" fill="red"/><circle cx="660" cy="660" r="60" fill="#cd7f32"/><rect x="600" y="610" width="120" height="5" fill="blue"/><rect x="600" y="625" width="120" height="5" fill="blue"/><rect x="600" y="640" width="120" height="5" fill="blue"/><rect x="600" y="655" width="120" height="5" fill="blue"/><rect x="600" y="670" width="120" height="5" fill="blue"/><rect x="600" y="685" width="120" height="5" fill="blue"/><rect x="600" y="700" width="120" height="5" fill="blue"/><rect x="600" y="715" width="120" height="5" fill="blue"/></svg>
